<mxfile host="app.diagrams.net" modified="2024-03-18T06:39:21.485Z" agent="Mozilla/5.0 (Windows NT 10.0; Win64; x64) AppleWebKit/537.36 (KHTML, like Gecko) Chrome/122.0.0.0 Safari/537.36" etag="NbSp5JbF27AlTlCyovqv" version="24.0.7" type="github">
  <diagram name="第 1 页" id="GOFT9cztTlZ8OalQVQtv">
    <mxGraphModel dx="2474" dy="839" grid="1" gridSize="10" guides="1" tooltips="1" connect="1" arrows="1" fold="1" page="1" pageScale="1" pageWidth="827" pageHeight="1169" math="0" shadow="0">
      <root>
        <mxCell id="0" />
        <mxCell id="1" parent="0" />
        <mxCell id="J0FPNzCPGo3RsI4ReDEO-1" value="" style="shape=image;verticalLabelPosition=bottom;labelBackgroundColor=default;verticalAlign=top;aspect=fixed;imageAspect=0;image=data:image/jpeg,iVBORw0KGgoAAAANSUhEUgAAAm8AAAGoCAYAAAAQMwIZAAAAAXNSR0IArs4c6QAAAARnQU1BAACxjwv8YQUAAAAJcEhZcwAADsMAAA7DAcdvqGQAAH4eSURBVHhe7b3PzizLct133sKeUvZL8Awt+UUMeQN6A88siCI85IZGBCxLlIaiqP93k5cSCU0JkBQgmhKlM7AgEQRp8l7+55U12c7IysiKjFqRlVVd1V319fodLHRlZGZkVnWfzrWzv+765oc//OHXH/zgB19//dd//euv/eqvfv393//dr3/2p3+0SX/+p394mP4C6U9+uEs/elg/2K3/eob++A+g/r+n6AdUox86rdV/NP2h01r9M/RHRqjey7Y/SH+0R3/8Mv3Xhf5kqT8GQu1EqG2oP92lHz1Vf7ZZf3GY/twI1Y/K5pn050frT7bqL7L+7HL60Wb9aeq3XdJvTajfrG/EuP3Wb/3W11/7tV+Fxmxd2ITt1XXMGzZlI4LG6wglE4WEzdYZ8gblneXNylr9R5SaIFQnskbpGUpGqArVe9n2BwmaszVhY/UMLc2bKBmrEUPm26lQ21DYoK0JG62zhE1aT9hEbZU1XKh+VDbPLGjC9goatDVd0cBhg9YTMlbr8kYNCfWb9c1v//Zvf/3X//pff/393/89YMzW9IdZyITt1dK8YWM2ImzKRoRN2aig8XpUyTxFwkbrDHmD8s7yRmWt/iNKTRCqE1mj9AwlI5SF6pC0/YGC5mxN2Fg9W9DIQcNVhIybCrWHwuZsTdhknSVs0B4RNllearRQ3Va1xk0ETdheQXO2psm8XcvAYYPWEzJW6/JGDQn1m/XNb/zGb3z99//+N5MJ+2NjykZ1rHlbGLdkpPYKm7KesBHbI2i+HlUyT0jYZJ0pb1LeVd6orNW/o5BhuqKSgTpK0JytCZupV2izgXtY2JyNCButM4QN2F5hc3W2luZNBc3YFkFjNqLZvF3HwGGD1hMyVuvyRg0J9Zv1za/8yq98/c//+T8lE7bVvE3G7TTzlgzVXmFz1hM2YXsFzddeJcPUEzZYZ8qblHeVNypr9e8oZJSuqmSijhI0aGvCZurZOtS8De3AYWO2R9h4HSFswvYIG6tnCBs3FTRlo4LGbEStebuGgcMGrSdkrNbljRoS6jfrm1/+5V/++oMf/L/JhI2at9m0HWXeGtMmSoZqj7AxGxE2YXsFTdgeJbO0JmywzpQ3Ke8qb1TW6t9RyCRdWclEHSVo0EaETdWzBM2bCpqvjoY+QsVG7BFhA/aIsBHbI2ysniFs2qygMesJGrItWpo3ETZVzxI2aD0hY7Uub9SQUL9Z3/ziL/5iMmAXMm6iZKj2CBuzEWETtlfQiG0SNmpW2Fg9Q96kvKOQURlp825CBunKSubpaEGDtiZsrJ6thw3c5r9/E2FDtkXYgD0ibMT2CBurZwgbNito0CJBM7ZV2LyJsLF6hrBBi4RM1Zi8UUNC/WYV84aM2lI/9mM/9vWbb75ZlTVnP/N3/6+v/+tf/V9q+V/+4s9//St/5S/Xsjduv/kbv/71L6VxvDGTHJr/X33/S41LWY/FiEl5ac4mfUo5fin1ncqz2frJv/G/f/37f+f/bGIjwsZrj5Ihs0omCRm01xs3kTcp7yhkVEbavJuQQbqyknE6WtCcrQmbqVfoYQP3sLBBi4TN1xHCZmyrsLF6hrBhQ4JmzQoasT3Cxk2FzdXZwibNC5mpbfJGDQn1m/XN97//fWjUsNrdtr/5E389mzMtI4lRE6nxQpJ6NW+S82/+jb/emDXR3/s7f7uaNJW0E2lZzJnto/p3//bXk9maDNz//Jf/p2Tgvpclx2LCrHkT42gNWiRswnoqxmxE0DRdQd6gvKuQURlp805C5ujqSsbpaEFzNiJspp6t15u3vrDROkvYkG0VNldnCxu1SOeaNhU2bT1hw3WGsGkTISO1XT/6+mM/9j98/d73vp+Pkb73vV/4+pf+0v+YjlH/DebtX/7iL0BjhKSGzu+yIdldN5GYp99MZsuaNDFyyLzpDt1fSSZMjZs8qlH7yWTsJoM2mTY7RzFstmyFzJoVNmcia8KiuFEyRI1KDBunV8ubk3cWMisjbd5JyBxdXck0HS1ozLYIm6pnCZo3FTBTz9SPqpDROkPYjG0VNldnC5u0ns41biJs0NaEzdbRwsZNhIzUdok5+/7X/+6//++hgZvrfiGVUf9N5u3nv/7VZIys8UI7b2K0NCbGTT8yFaOFjJLoN3/j3yTj9sOvf+/v/u3wI1Nv3jQmH6HK7tu0Y/bDr38/xeRYZI3cLGzItqg1ZqpivhpF8aJkirywcXqVvCGhZnmz0qt7VyGDdGUls3S0oCHbKmysnq2rGbjnmzcRNmRbhM3VmcLmbE3vbd5EZxk3kTdps4EbMW6iQfM2f1yqhkvMk5g3OdZHMUxq4jSm5g1p3nFLhixJTZc1adao2ZjOQ9pbc2Y/OrVx/Wj03/3bX8u7cNJP23lNOUdNmyqZr61KBuk+5i2Kv6u8UenVvbOQSbqikkk6Q9CMbRU2U6/Q9QwcMlhnChuyLcIG60xhc7amK5q32Vj9eZGNnStkoPYL7bJ9f9i4iQbMG/5WqRgcMWhyLIbn//6Nf9PUy66b/bJCzyzJlxQkl3z8Ke1kNw21U0kbMXCy4yZ/zybSOtl5E7OmMfnoVIyX/I2bGDt9tKZM4zbmhQ2bKJmuvUpG6LrGTWQNSa+OaoVMzDsLmaWrKZmkMwTN2FZhI/UKXcu8nf0lhVFhk9YTNllnCBuzEZ1r3ETYoEWaDZvX0midIWSg9ms2b9bAjRo30Te/8Au/4Mya1dK4qQkTsybH1pyJbFtr3qzs37jprpsYN/lbNzVmVmjnTQyezkX/rk0kx5Nhm3fiJKY7brL7Jrtwvb958988xaZNVExYVRTvKBmh6xs30Vq9tkHxdxMyMKK1+o8sZJiupGSSzhI0ZFuEjdTD+mMQWxE0byposM7UM75lOips0nrCZutIYVM2qiuZN2zaVEujdYaQgdqvU83bZNzUvKlR6n1zVD8qFYm5s+at1y8buGS0tpg3MWLTDtr80ahK5zr9LMhswiSuu2z6Mao+Stw+2n6tYVM5E5bVq8NamqKryJoR0Vq9bYPqRI/W30nevPTq3kHIMF1JySQ9Q9CcrQkbqYcl5m2HgVPNxi0ZKStotI7WbNzuat6QsAnbK2zKRjWZtz9L5skariOFjRoSNm2qpdE6Q8hA7dfSuIlpE40auGHz1lP+yBN8q9SbN/nSg91tE+0xb9aoiUGTHPoxqRo62WmTsjVhklt34UbMW2vWrLARW69fajYsV5SaDVQnsoYkilut1X8kefPSq3sHIcN0JSWT9AxBc7YmbJ6uoIVxU0HDdaRa8/ZRDBw2YXuFTdmosnHL8qbrKGGj5oUNm9XSaJ0hZKD2yxs3+cLCVDdq4HaZN7+Lpn/75nWGebPGTfqKGZvM2vRbblLWefkdNJHWqUmLzFtr1qywCZs00qZVa3ruKDEjKIa0Vv+R5M1Lr+4dhAzTlZRMUld7+gBBczYibJ5eLWjcrKDxOkJL8xYJG61nChu1SNiI7RE2ZaOazdtrDBw2akhLo3WWkInaJ2/cxMzN9SMG7uGdN/2IUoyZr3vkY1PUTqUGzRq5VrNRE3Mmx9bUSVlNm7YViXGT+l/+/veSsbKGbdSUrbRLxsWrNT0fRdaoWK3VfzSpcYni7yRkfq6kZJC6Qn2sUB8gaMy2CJuoQ6Qfo1qhdkbQsHlB8/WosFGLhE3VM4WNWiRsxrYKm7Ke6keloazxOkKPGjfR0mSdKWSktupP/vgv8g/wzsatNW8iMW7yQ74+rlo1b96QbZE3b/8q77wlo2YkZknN25qwUfOazdhetYZNlczWqlbaJeNC89ar/2hS4xLF30nI8FxNyRxBobZIqK8TNGRbhY3Uw0LmTYTaFkGzhgQN2CPCJi0SNlTPFDZpW4VNWiRs0CbN7bBJi5QMlyiZpmP0nuZNzJoYuNm4Lc3bmgLz9rhxWyoZsJ6S8VoTNmsqbMS2aGnYVMloHaFkXN7bvL2b1LhE8XcSMjtXVDJHC6F2XqgfEDRjW4WN1GE6w7yJoAl7RNioRcKm6hnCRmyPrOkaU2zavLBZ80qGyyqZp8ckZm0ZxyYtEjZZZwqZqW2ypu0w8/Zk45aM14iwYVNhM7ZF2LSJksk6SsnYfHzjJvJm5V2lxiWKv5OQ4flISqZqRNCM7RE2U4dp0MBBk7ZF0JSNCpu0NWGDdaawEdsjZLqOEjZrXslcHW7glsImLRI2WGcLGapxnWTesAHbJ/8FhUbJeK0JmzUvbMhGhU2bqJiuUKPtjJK5ecy4/T6IXVHesLyj1LhEca+1+jsLGZ6PpGSoRgSN2CPCpuoQeQNnlerhz4TsETRmI8LmbETYZJ0lbMT2CJmuI4UNm1UyV0jJRB0pbNIiYXP1KiGjtdTh5u34XTdo2kTJdK0JGzUvbMi2qDVsKme6oEbbzcrGRh5VC9PTkxg3mrf7SI1LFPdaq7+zkOH5SEpGao+gIduqyUwdLmTajGjeRoWN2BYho3WWsGlTJXMVKRmpI4WNGhI2Ua8SMlpLXdq8JQPWUzJea8JmTYWN2FYtTZsIG68j1Bg3ETQ+H0XWsIii+EeVGpco7rVWf2chw/ORlEzUHkEztlXJTJ2tPeYNGq6jhc1ZT9hgnS1sykaEDNYztNm8iZKZOlLYrHlhE/VKIbPV6m3NGzZiW/Vs4yZamDdRY3g+kqxh6dV9VKlx6dWhNr7u7kJmR7W1/VWVTNQeQTO2R8lQna2FcQvMGzRZr9GPFkLG6lnC5mxNyFg9Q7vMmygZqiOFDZsVNlCvFjJcsy5r3n6YBU2bKpmwNWHjJsJmbIteYdxE283bXT4mRVIzgupE1rB8RKkZQXWiqF7jH0XI7IhQWxVqf2UlA7VH0Ig9ImO2TtBs2qySUbqgeVsatxEh03WUsDlbEzJWz9Iu8yZKpupIYdOmwubpKkLG6xTzhs3YVj1u3rBpE2EztkUvNW5iWvTYxqDu9DduSGpGUJ3IGpaPKDUiqE4U1Wv8I8mbHdTGyre/g5J5elTQkG0VNl5HCxq5ZICuImzORoSM11HCBq0nZKqeqV3mTZSM1ZHCxk2ETdNVhIzXYeYNG7A9mkzbqnlLJqyns0yb6GzjJmYsimMD05Oat7saODUjqE5kDYtt5+OqkXoUf6XEiKC4SI1KFH9nIXN0ByXz9IigGdsqbLbO0NUNnBc2a17IdB0lbNB6QobqFdps3kTJXB2pj2PeRPuNm+hA80bjpjtpUXw2H6qeMbPGLWpzdakZQXUia1h6db7e16nW6l8hNSNR3Nf7+LsKGaO7KBmovYJmbI+w2TpadzNvKmzaVMh0nSls2qyQmXq2dpk3UTJYR+rjmDfRPuMmyubtj9L/7BRFURRFUdT1RfNGURRFURR1I9G8URRFURRF3Ujf/PzP/zysoCiKoiiKoq4nmjeKoiiKoqgbieaNoiiKoijqRqJ5oyiKoiiKupFo3iiKoiiKom4kmjeKoiiKoqgbieaNoiiKoijqRtps3v7G//GZonbrD//wD7/+4Ac/+PoHf/AHFEVRFEUB/c7v/M7X3/3d34U+TLTLvBGyB3ntyIvyRz/60df/9t/+G0VRFEVRQOK3xMB5D6babd5QHUVFEtS86QuToiiKoqil/vRP//Q88/YzP/MzFNWVvlYEb95Qe4qiKIp6VwmyPp5u3v7aX/trFAX1X/7Lf6mvFQGZN9SPoiiKot5Nds18inkjBDFq3gghhJC7oz5pr2jeyCWgeSOEEPIuqE/aq0uZt2+++aYcTfiyEsWFXp1H2lp5RmPkcWjeCCGEvAvqk/bq8ubNymLLo8dea0RtRvqSbdC8EUIIeRfUJ+3VZcybN0RrZYuti44tvVyKbyNlJHIM1zFv3339/C1+rr/99Onrt99+Ti0O5LvPX7+1Y3zW7F++fqrxT6lUCNvPfPmU6sJ52rxJn2rmgNTe5mrG//YrGN7g+g6P7dqVcb77/K2JFXXn3xvfXFNCCHky6pP26hLmTd5MFX1T1mP7qGgbWx/JMxKz5V4dOY5L7ryJUTnarHm+fPo6+w8xF5NREQOm8WxatBC0V6Rf12Q2/cWoxgasmqWay7VPuSKTuOybGB5bzmvdXOVzDSaPxg+vKSGEPBn1SXt1GfOm8qDYXuw4Vp6ozpZRP7KfveatLtKiulDbHZZpwW7aqeEp5uyz7FSZthVv3rScH5MRKTt0n77Mu3W1v7QpOZsdqhyPTIsaGmde/DwqrQGSc8xmJmzvGTBJTS5nuNbG6dabsaVdc00G5xX2LzTjj15TQgg5H/VJe7XJvH358gVWRBo1b4osdBYtr8XlMVLEWr1g61Hbtf5knF3mzS7giS+f5HgyUt1NFdkxmhxd6m/a+p0kv8BrOfcrZkH62OPcvmMUbF9PbefNS2BmTN5q3Fwco2YT5PQscslc9P+v4DwUOA8wtrRrctkx4o+Gm/NFc2nGH7ymhBDyBNQn7dVlzJs1QvqmbbEx/2hBMYvNY/ExVEYix7Bv500XeWcEkHHJC7x57qSNbztatnF0LI92rKw1oyDnogZkxGjY9mqInNJcvpgdx6UJmnPYncmmnT2/xPzRYxmz55Jd3xY7/x6gXb6+A8arGd9fQ18mhJDnoT5pry5h3nTREFlQTNCYfYykoDok1Fax9faRPM4+86bIQizPVVqMkWHIi70xANrGtx0t2zg69v1W8QbFGYtFPt/esWF8+3dgEHR+uUIQA7d/HqtjZ5ZjNLtuPZrx164pIYQ8D/VJe3WZnbceyCSNmCrUT0F1vfbCSF6yj13mLS3An+oirov8tCPUmAK3UOddJin7BXy0bOPweDKT0JhIG28kgRGzxibPdy7A9g12To7vPn8yfVdMoNDkcueV59LZvXLzCMf252S/2ODHQGP6/oobP7ymhBDyZNQn7dWlzJuYImuQ1kySbdt7VGw5OrZIHLWL2pP97Nt5m8yEPk/t30DNcVmjZeGu7fTbmG5x94t9WLbx3rGZQ/1buhyfjYb9uFI1nYc9t9msxO0Ndh6e/Dd6c9+ef/Fj5bbNecXGD/aNxnbXpB3DznEy5vB83Vzg+ME1JYSQZ6M+aa8uYd70DRaB6nxMj6NHwR4LvbIcr9XbR/I4+8wbIYQQcj/UJ+3VpXbeevSMEqqTWGSybJ0FxYSobdSebIfmjRBCyLugPmmvbmPeyMeG5o0QQsi7oD5pr2jeyCWgeSN3Q/+O8sd/KvjDv52clZcQch3UJ+3VJvP2ve99D1ZEonkjo9C8XRDzBYP5SwNP4ruf+vrjP/5T+EsXV0Dmly/Kd19/6scP/PLDWXkJIZdCfdJe0byRS3C6eVuYAVkcf/zrQ5sbRxkMySMmyTmkvAMj+Y8aZxPyzUxzfaI5+Hg+F3tdJU8yIVvP4annnOYIx4riCZlfNVnodWS/2SrybaSfrS8GOcxr2vfmlOsOeG0TQk5FfRLST//0T2ehOhXNW0HeFC2+7NnTfq3NO3P+zptb0J5qDlbIc/mUjIKf34+/bo4yfvP7atH1KuaslL77KZnzj5ufAdl5nff224jMN/+/6caK4pb68zPOdE87ln7XbDJf+lFozV/6S1nToLz5upa+Us+PVAm5N+qTkH7yJ38yC9WpPpx5q2+IA7L4soBiytb2ykibd2S3ecsmQ5/T1kRMsaSyANsFUBbYetzkKAaqmIefygvplHeR0xoMNI8mx6TG1LixvrgF+tNPlfx2nJTZ7uhoGztPOJccXl4T3NbtGmVjOZe9cfjyaTad+f6y9trqsZ5DeYyvyRzvzlHz1Xqdu5ik6RieL8LmskTxRDVYWcZ0y7UrfZrxy0nqtWr6pzppK02ivPn1MKWQwtIwJprxFjt96yzHNrt9SfOQ7jW4nAohZAX1SUhvad5GkDcci5b1zSiSRcu+jVVEr+5d2WfepkVEF4+8eEmhWcxlUSrHZtGbF0PJMbfNfWXxzTnMwoRy1sW9Nw+TQ8ZXM5DrygLb5DF5/WP6TxbTmk/IeWxsyzUJ2k6FMmbBlw3SbzJraX6fpE3KW9rW66z9/XzrNWnnMo8XzVHi0/lI7FM6n6lNGTuP4883IDq3KO6xZiod27lO12Weq+T8lGL5PNJ5ZaUO+Rz8BE3eOZeEB3be7Jz2kK+fMYD1WoDXICFkM+qTkGjeArx52mKm6htukcYsvuxZq39Hdpk3v7jmBWc2JXbXaUIX0Xl3ZurTPqe5n8+NcmqbaB4o3uQsmLjufuTFUeP+MXcq+Bgq5zl35l+Kc9ty3MtrkTqZsD6mVtP1dddZ+kd5t8TLHOddrFSWeDOH6DUA8GMoUVzI85ieq6zS7ruf+lQNz2zQ7C5Ymlee3/xcN+YtyJsqsmlqx5oNYN3d1H6mXcSivxg+23+hcp1X8hJC1lGfhPS25g2/8cyGyR+jspfHx7SM2lpG270bx5o3ZbmA5wX/S2pXFtBFDiVcpExObRPNA8XXxtK+Nu4fpU7xMVSOrkmv7VreBsmZ+jW7TmJiUlz7aP8o75Z4meNkeHSMYhTNHCbM+ZbIAj+G0ovbfLZdcw2m3TJ9LMG881aRvqlDPhf5CDzKu0aeE9opGyT3t9eoPKelVNmalxACUZ+E9NbmzWNjvn6PkdI+8hgJofGo/l3ZZd7yAgM+UksLzLxAyqJuFrWyuzAv8G2Oil+kUE4xgblNPA+fo5blePGxqUPjtX7afWnmuui75ZoEbadCm1fKHQMkpli+qGCvc/7ChQY0H8qbyzKXuX+eS43Hc5QveegYYhjl49NclLo6Gfca8Pg5KYPxea5Cmm85lvg0t/kc7N8HZiRXqpC29W8ca5XNu0J3TgP4cy3/n9TnL/ElzY8fmxJyDOqTkGjeDDbm630dkgfFUTuPthlp+07sM28JWXTKczHvrkyL5RTzfx8kdc6ENDmSZBHzixnKadugefgci/ZlIfftFI0v+s3z8At+pmmzck1g24Qds6Af87XXc2JhFkreushrPp/XlothyGMkE1bjJddijvmcWsPYmKjaB89ZyPM27WZfiONK/cgzqZmrkM/DvcbKfBbzkHNT85Y6dPOu8EhfwfafDHJ7Deu1bZ4PGjlC9qA+CYnmzWBjvh61j5C2Kl/28vgYavOu7DZvhFwSZ3ysybQ483YuKzuQWylzJ4RsR30S0lubNyTFHgu+DsnjY7aM2gu9Pu8OzRt5S55k3nQnMdqB3MZsTOndCNmH+iQk7rwF9EwU6rsWk+M9OYQo/m7QvBFCCHkX1Cchva15W8MbJm+8kDxRbLStZa3+HaB5I4QQ8i6oT0KieXOoufJmyZaRkULtNabHto2vH2G03Udll3n77vPXb7/9vOmPsi9LdC4f6RwJIYRk1Cch0byR2/BS83YFg7TVvEm8/CNhkvt2o/nmZhb/OIkQQi6D+iQkmjdyG2jedpg3GxezVsrfff52Yea6t4cihBDyVNQnIdG8kdvwiHn7bH6fqm4wSV3deZqNy2RsSjybne++fv5W233z9dtkcqKcTd9vvv36eXJKqf2nr59Kjk9f5nx4LqVfjds8YFyXvx3Xmjr5BqCcp4xvxiCEEHI51Cch0byR27DbvKnJEeru0/RTBo3pkkJuPxu5uhtljVCY0yHxmrOYpfxRpTmuczG7XouxjBlD49o2iXwuGjfzauJu140QQsi1UJ+ERPN2ELLjYfFlJYoLvTrLaLuPxiM7b2pgahnFs6HR36dy5sa2j3Lqce5f5MdCx75PFjBXtq9g+/u49Pd5/bi5MSGEkCuiPgnpcPP2L/7Fv4AVkT6yebOy2PLase+rRHFB6qyi2N14jnlTnImz7Xs5zQ4YHAsd21gP3y7qL2U1bzCvnJuZJyGEkMuhPgmJ5u0AvBlaK1ts3cjxCKjvI/muwqHmrZgz9LHpp9l9zX8bpoYoh4OcLg4/voTH7VwapI392NTkr2UXbz4Ctu0NuU1jVuVT2LZMCCHkdahPQqJ5exBvirxZ8kZJ29j6SB7URmWxZT1GsbtxrHkrx+layPWYjYzuuE361mxP6U259QsLKKe9cXdt58eMjku/rCY+YN6ivra9YzJwph90j4QQQl6B+iQkmrcHsYufB8WOopfb1ukxit2NXeaNEEIIuSHqk5Bo3g7CGyJkmgQfl8dIWo+I4oKtQ3l6fa8MzRshhJB3QX0SEs3bAXhj5M2RjflHC4oJW9uO6m7QvBFCCHkX1Cch0bw9SGSGIoOkMfsYyYPaqCy2rMcodjdo3gghhLwL6pOQaN5OBhmlnrnyjxG9eluH8q3lviq3MW/RFwVWvkBACCGEKOqTkGjeDkIMkTVKawbJtu09CvZYQTEF9V3Ldwfe0rxJn/R8yXM2a/mTHvlbrr3c+c4OU//8DVqQN/yyadPW/T6cyZvV+8Zq2Lb9hu9iDCWYx+Jbs6JoHqvzTXOhwSaEXAD1SUg0bw+iiwAC1fmYHq89eqK4YOtQnl7fK/O25m2ljxi3xc+XWLJhcYbP5w3HcfdBlVyl3Zbfiuu3FfOG+83E8/Dk6wHc39p8qwmMriMhhDwR9UlING9PoGeWUF1eQFxcYz1pO8XXCb58J3aZt2xK+jeFb3du7K5PuyMk7cO2Mo5p2/zWmo8XozTdYL6Yh9zOjl0obSMzIfOpO2lBuy+fBvKKGYK7Vc401X4u3mWt7Q7zFp2vxGGuwfn6vDnf6HkSQshxqE9Conkjt2G3edPFN+9AmWO0+FcTI4t956NEobadTF5tWw1AEM9zcrkjk1DaVvOXNZmTaty0HTqfMgfbP4+7yNszKDZHaZf7rxmuwmrbdo5o12wCzMMR7boNz9dfx9yvd20IIeQc1Cch0byR27B/560sxr1jYx7s7thizR5pq+XReI+w7WQu6zzMfL6Y3cFvP39OhseYFskn5Whu+dD2TxY0GaLJaJYxpbByDk2O3ke6C8SgTWZpaB4WPbda3DGHlfMihJBnoT4JieaN3IZTzFte8M3Oio37RXy07dZ4j9G2YTsxQ3bHqXx8+MW39+0Ki7yl/3ezyVpnS1vNX4pKOI9STIS7bpnBOWx5bggh5ETUJyHRvJHbcJp5M4t13q3J5Wl3p9ncCdu2xmA17vJkJIbMBWqL6LRrTE0eB+y8RR8j53Mw10H750PZ2WoN364vLKSxUf6WeB6ZsN/M0Hz9dfHjEkLIk1CfhETzdgLyMU2Ptfo19vTXPo+O/UpOMW/pUMyNXBdR8/FaNgRznSzgYVsxP6PxhUFI5LHOMW+pMhvRaR5lDHdu3tQ0NG3bOU6GyOTpuJywrZtLmCKcx3R+8a7bTG++vi5X5TH7ppAQQs5AfRISzduD2Df7NSn2WPFtfRtb9nUjPNr/Cuwyb4Q8Qv1SCiGEPBf1SUg0bw/SM1kWb56sNGbplX2dR+pHdDdo3sizgT+zQgghT0B9EhLN2wmoMUIGKTJNPo7KPVl8WUCxu0HzRggh5F1Qn4RE83YAaoysQYqOBSlboZjGBXss+LIH1a/1uQM0b4QQQt4F9UlIh5u3f/7P/zmsiPQRzZs1SigmjJZ9XEAxi9RbaUyxx3eC5o0QQsi7oD4JiebtQbwRUsNkpXHL1rKlVyfYej1Gsbuxy7zJtwV739ZE9Xv6bOJLe/Pz/I3G+fWy/Naka+9Z7S9/u5XqNEfTfuxvuh7r3ztf1H/lfAkh5A1Qn4RE83YQunCuoe2senEF1as8NqbH/vGOnLLzJkZiq1HY06dQf47C9re/cybGxRga2N7T6S/k33mrP1/iftxWvk25ci6P9F/Ov99/6HwJIeQNUJ+ERPN2AiMGybdZK1vW8tv6keO78NDOW36cb1Avqr/j5Y2CiTW//ZVj9jfTwC6X9F3bjUJjVpy5EbrtPW1/mX+eY83h8q/kfrR/pmkz0N/HpDy0w0cIIR8H9UlING8HIIu4Za0saMw/KqiP0qsTbE57jB7vxMPmzRoA2fGRH1/tmYfcZ/6B1vpr/KiP4sdBrPWP5lOKXUzbarxcPJ1JvmvA9PqI5/po/8pi/iv9fXspj4xDCCEfCPVJSDRvB+CN0FpZmBauOT7SR+nVCWu5pLyW44o8vvPmDUQyBIt7fCZqWzUZ7hf2F7k2EvYvc/IVw+PZ/rLDpQbJKOX5/EnvYlDawB+hfbS/wc1fPobt9n/0+hJCyAdAfRISzdsBLBY4II+N+WPbx5bXpO0tvqxE8SvzfPOmOBP3qLmA/QPjJgyN1+kvaI5FLjFQnX7KI/1tn5H+izaEEPJ+qE9Conkjt+FQ86Z/KI+MgunzqboKYzKkPrrfZa7bYGaEtT6wvRl/05iTEa2bXTaXz2t5pH/tK3T6K017wfUhhJA3QH0SEs0buQ0Pm7e8e6ayhsPFq3mYTIPW2S8n5J/OcLFMzhcbqeYLEEliSHxMpHlR+2mM2fD0+lfqOZXj2tbM1eVt2Nk/nj/onxg5X0IIeQfUJyEdbt7+2T/7Z7Ai0l3N2zf/27+nNugIdpk3xZoPci9kl5TbboSQN0N9EhLN206QQaFiHQHN23vCm8MTQt4R9UlING87QeakV16Li/bUbYlrTB99fIt8H1/2OoKHzBshhBByI9QnIdG87QSZE1+2+LrR4y1oX9s/itljVOexbbVNr+x1BDRvhBBC3gX1SUg0bzvxxmRL2crWRceo3IujmMYtqI1V1AbFUczqCHabN/sH8u5vp+Y/kP8AH829y0fDzzhPfsxOCHkx6pOQaN52Yk2JNyg2ro++jeDLnqifx7fzxxati2Tb9I5H0PZb+vR4yLx1F+Lgt8qs6cu6+Dce9TzR+fbqLGv1W5F85hrmb8E+OsbRc1Rs3rPGSK8g+w3mD/GPBkLIKahPQqJ52wkyJdasaJ2P7VWUy8ctNq51KKbYmH30MUHjvj7SEbzEvNl+Kzdhfzk6X3S+o2ZktN0QYlTsdU3lI741eugcDTbvWWPka8KfPSGErKM+CYnmbSfInKCyPkbxHr5fhG1n26OYxdf5Y//o69diVkfwcvNmFt7298jmvk289F3EvEmoi7nMoxzneOmj9aWf3J6qidV2ST6/ojFTt5yrjD/nqrtk2iacx9Rv9mVq2gKjUufQjieaf9dNYyvPS9B26HmYmhbcuX/6ZM5xkp5fk0fHbK5J276F5o0QMob6JCSat514Y+JNiq8X9Ng+WqGYKqpDcR+z2LgVqkMxG++B+jzKq81bXrRRHv0dsmwk5oU538gexcwCLjk/pdi00Kd4zi/1zizU/N4kmbLOt7SbDUaR1tU2fl4JrZ+ig/NI2N9iM8f6Y8a1TmjGKNRdzfnaZFDbGgva5vm5c0OxclyxY+X25hyjXdfmuR9on+c8PyeLH1MmhJCC+iQkmredIFOCzIqNadw/RqzVe1B7iam0rI9RXQRqqzErFD+Co8yb3TmZFs+OeTMLbbMYwzpdmK0xQDFZ26fxqrFQA6CPi7FKOx9HZR8XFnV4Xk1On0fKaB6Z2UjNN543iJmR8cLzMztYeV5WwRzDtuPPQ4Odlz0WfJ0dU+cStQ+ROYHXHSGEJNQnIdG87cSbk0iorY3pcfToj0fKkZSobiRm4/roheJH8Oqdt0pevE37Rbt185B33L6kWO4n46d4MjjZ9Ph8ebxUj+Ko7ONCWOfmaut9WymjeRQm0yb5Sq4Fpa7pP31cWc1ekLtB26y2deeWQbGCzedz2zHRcx+1L0VM8LojhJCE+iQkmredRObEH0fS+i2PEbadSvExdKxlwcds2cf10QvFj+BS5s3E806elFN8cSP7L/HN7T+lY/3Y7LvPybh9+lTmMBkMNTTNx5XNfKTdPG87j8W8NWYe12+6PzqPQu5rPgqUcnVlCe1n+teclXZMSO0ftE31w8+DRfLquZs5ZrTs4uE192VFDbogbZCJJISQhPokJJq3nXhTYo1Kr06x5d4j0lqdgOLo0devxWy8B+rzKJcxb4n6t1xiVpLpmtpNZqLGc0IUEyRuxvR/I5UXdu0XGApBP46U3DoP1E5jtS6a13xuOTY6j4y/jlKex/B/3O/n0OS38ehc9HjRdsvz0FLPvT6nBTMmfO7tnARfVtx8uyaVEPLWqE9ConnbiTcnPfXaozrFHo/g89j+azGkqI3G9dELxY/g6eaNbMMbUEIIIbtRn4RE87YTb06ovo7gIfOmux1uqyN/7JXraN4eZfqbt1IghBDyEOqTkGjedoIMChXrCHabN0IIIeRmqE9Conkjt4HmjRBCyLugPgmJ5o3cht3mjR+bXpPVv0V8kLPzC88YgxDylqhPQqJ5OwgxABZfRoy0EUbbWfbM5+o8ZN72fGFBTZ8zfPnbhnsW7GeYFZlv1cV/hmJxPcq3U4+6Rmddb5v3tOfUfjvWPo9RnBDy0VCfhHS4efun//SfwopIH9W8CShmifqs5dI2Vh4fQ23uxkvM27ef8u+x1boc+/akBftB/Hle/duffr7oej+Cz38UNu8pY0wmtv6bwTyP9kshy9/II4R8JNQnIdG8HYAaIzVSkSy2HLVZI2qP4ltzX5HXmLfPX7+kRVJ/Fywvnp/nfPPHriLNMe2O1N8SkzxS96X0y3nFpEz9Pn0pO075uLS389Xy1n55HtPuDJ6ni6NzquOWvHJcd3xk/HKc46WP1pd+qzfSl3iumq6zXOPmd9iiPk08fv56bYfOf2pamK+56Jwb2M/P24SWXdyeHyHkw6E+CYnm7QDkDXgrqM9IHtumdzyiu/Eq8zb96GtaNLUc5ZMdknnlTmZBFlqT2/bXxTz/yK45Rvl39svmweZRdJ4532wG4hu4tybw8BvpT4X5Oun55HjUZ55TpslVWGsrj0Pn77Bj5fZmfs3cDc01X2sv8y3XIqPXxp1HbgfmRwj5EKhPQqJ5exBvhKw5srKgmBDFfHs9jmI2rqDY3TjKvNkdkWmHZ828yRo7tc+LLli8NZ9diHWcZgdO6n1/f2xjwpZ+wVxym0WdLP5S9obAx+T8p+tzyo30/XGeQ3k+oj7yaM8HzHm97fj5N9g52WPB19kxdS5Re4vvW+fr59qZJyHk1qhPQqJ5OwB5cx1F26I+vTy2zufw/VAeFLsbr9t5K8e6UGo8x0w/P47sqqTr/lTzZvspEu/NM5sANQhKG8s7bmfdSD8f2o8YJ+Xr5nemtI/PhRhuu37+DTafz23HRNc8al+KkNpG5mTmM9KXEHJb1Cch0bwdgCw0il+AVB6N+XZWFl8WUEzQuOZBuiMvNW8Wjbv6bEBqWRdaeSy5UT90LI9mka55R/ppzOLiNt8lbqSfxzEfJQrVtLV95pztmJC1tlvO3yJ59fnx56hlF4fPoeDLC6Zro9edX1gg5H1Qn4RE83YAe8wQ6tPLo3XyGEnRYxuzRPGrcznzlg7141SRv0F9XVfzDlxa7LWfzRsc54XZ513rZ2OO3jxrPF8AFBMkbq4R2hGr/QJjI+RrUXKj86qY8UyfLG3bjGniis0L2245/xa9nvO1LJgx4TX35+rLir1OzRzs/GaDTwj5eKhPQqJ5OwB5I1X0DdfLMxpTtrTX+Fr93Xi6eSPXQ0wNd5sIIW+A+iQkmrcDsGYIGaNHYorU+fqovcbX6u/GQ+YtnbOct1/45x0umrerYnewuNtECHkX1Cch0bwdgDVD8yLTyjMaU7a017g8Rroju80bIYQQcjPUJyHRvB2ANUPIGK3F5NhrhKidxtfq7wbNGyGEkHdBfRISzRu5DbvNGz82vQarf3v4IGfnF54xBiGEJNQnIdG8kdvwkHnb84UFNX3O8OW/wZJ8a3nPXuh1flUX/3uwxfWYfgZj8S3RvZx1vW3es59T+TbpqfkJIXdBfRISzRu5DS8xb/5G6Tl2kRvT+/PyP99xNfx80fV9BJ//KGzes8ZI1F3gKz+HhJCnoT4JieaN3IbXmLfOjek1b3lc3Gy8qReTonVlx8m3yyMk9vbLvwE27b7Z34mzHwk38dJ3EbN55bju6Mn45TjHSx+tL/14I3pRGbPMqX8jeoM9B0LIW6M+CemtzZu8kVp8WYniQq/uEc7Ke2deZd6mH3NNZkTL6DE9X3VR1h2wpr7kzz++ao5tu9w5sbNfNg82jyLtZXI5nxoxCZdz8jE931SWnLwRvRkrtwfPdSlWmms+0F6xYxFC3hr1SUg0bwYpW1lsefR4TT3W6t+Ro8yb3SGZdnzWzJusuVP7vAhr3D/mTolePTq2MWFLv3IeWT7Hom4yRu3fxqGYnO90PXgj+oSdkz0WfJ0dU+cStUes1RNC3gb1SUhva97kzdWyVrbYupFjhG87qnfmdTtv5VgXeI37R6kTevXo2MaEvf0UiasZ0nLTbt3E5B033oh+wubzue2Y6JpH7UtxwVo9IeRtUJ+E9JbmzZogXTj02D4q2sbWR1LsMeLR+nfkpebNonH/WKq79ehYHo1pyMZmtJ/GLC5u8/FG9DVx//wtklefH3+OWnZx+BwKvuxZqyeEvA3qk5De1rypPEeZprU8j9a/Ix/WvOXDtNin51wEb2KOjm3MYW8pNd88fTI1NZ5PGMUEZ6LQjljtFxgbQfppbnReFTOe6ZOlbZsxTVyxeWHbLeffotdzvpYFMya85v5cfdlgXwOirlElhHx41CchvaV5U+QN0qLltbg8RlJQnZcF1Xu9O083b+T1iJGjiyGEvCHqk5De1rxZM4TMkY35RwuKCVFcWasnSx4yb+l6yzX3RmDe7aB5uwp2Bwv+DRohhLwB6pOQ3tK8zQtDa6BQTNCYfYyk2GPEo/XvyG7zRgghhNwM9UlIb7vz1gMZJ2TMokfBHiN8/VqOtXzvAM0bIYSQd0F9EtJbmzcxRNY0rRkk27b3KNhjhK8fybGW86Oz27y9y8emq3/bdwKvGHMrd5gjIYQ41CchvaV5mxZrbIRQnY/pcfQoyPGalOhY0RiqeyceMm97vrBgTV/Wxf/+yp+n/9bmGX/4v9cY2X57c4xyRP4z5ziU+0v5zT1CyLugPgnprXfeeshiF4HqdIFUev2Ftfxe5EXmzfbzP5dxNcx8px3F1mzCWz89yhGm5ogcPc7O/ygr86u7w1c+B0LI4ahPQqJ5I7fh5eZNdj+KIWp/k2vu28RL30XM5pXjarJkHuU4x0sfrS/91m/8vvLTJ2HutZvgz/Vt3J6L1uv40++o1d9Py21S3RftN48j+vbzl1yeNwmlvzuXnEOvmbDyvOgc7VwFW845XT+LaYue40ppB29E34yh8/fn7wcu2LkSQt4C9UlING/kNrzavOVFG+XR3yLLi/NsKuIbn7dm4/Abv7sxW3q5yzXIH7ea45rTXKPcppxfnbMZs8bLca4z19nX67Gg19MfG+TnRGo4aFPjmt+PU8uduSs2h2m72M3M9W5udQxw3afCcjzPSBtCyIdCfRLS4ebtn/yTfwIrItG8kVGOMm954UwL6bzT0TFvpV2WXTxh3bRAz7sqAorJmj6Nd8qN333cgvr43OjY98vnlc5Bd9ByHnM93DnrNW924NB4mdlMNSbNYgybXsuMn4edux/Hxm2frHnumdoXP5+V3hg+rjl8HWKkDSHkQ6E+CYnmjdyGV++8VfLC6wxD027dxImZOe/G7zIWOB9hJDc69v10DGvemnqHmK10/mPmTZqLaZMx7DW0lGsm87B50PPiH0t1fG6ARRuZW8/kFaIxpKx9F7kBI20IIR8K9UlING8FWVgi2n+R9/UoozlQu17fI+b2ai5l3kw87ypJOcWvceP3cuyMxfyR7UpudOzH1o8Da7zN2yJ1OvZ8/s0YyASlfOHfgCVk7nLNoCHMxfl5qedgxpmvV2/uBZOjeyN7N4e5HFz3qbA8f4/PSwj58KhPQqJ5KxxhfGw7ObZCMY0rqF6FQPGorWDrNK/XlbmMeUvAm5CXBbrGc0IUE4yRyUX926hCXtC1X1nY0XzKjlbOXecxkQ1CzZHUmAWNg9zouOnT6Wfb5LgzRnm+qa/tl8NTn/n6BM+JJY/Xmh74vJix7DVprhecu6HmiJ7PgjuvptyMgee9yJfwz2PXZBJCPgzqk5De1rzZN8NIij3uEfXRY59na5sIaRNpC1vbP5unmzcys3oND8abWUIIeTPUJyG9tXmz9MpyPNLe91H0GPVBSFy1hV77kVxbx3s2D5m3cj3r7lNh3tWgeevyZPM2/c1bKRBCyBuiPgmJ5q3QK+vx6KMgx1Ya00c9tqB4L4biEbbO9vfxK7PbvBFCCCE3Q30SEs1bQo8jIxMdC1v6+L6KxKO+im8joLKXsvX4itC8EUIIeRfUJyHRvCXQ8Vq9MtJOj+XRCxHFPb5dr7z1+IrsNm/82PQaPPvv5oSRMZ8xr1ecOyHk1qhPQnp78+YNC4r72NqjIMdWGkOPgraLhPDxXnnr8RV5yLx1F87Ot03TNfGGL38zUPKt5T17wdb5VbXfYLwcej2ecV00/8hYZ81n6zz2IHnr889/gBDykVCfhMSdtwBbr4ujBZV9H0WPo0fLaExYy2fL/thKscdX5CXmLd/P09Tl2LfnLMRb8ed19W9o6nxXn48HsflHxjprPlvnsRn3uuU3dAn5UKhPQqJ5C9hjaqI+ejySE8V7bbVurV+UwzLS5pW8xrx9/vrl8/xjuvlbkJ9LPs1bHhc3I2/q55u645u+m/nt7Zd/g2zafWt/G2w+tyZe+i5iNq8c1x09Gb8c53jpo/Wl3+qN821+S9O2zLnJOaluhKLceY5zTH/LDfZX7HzQHHJ44LpNTQvj84DPVe+8KzKGed3a8yCE3B71SUg0bwG2fq2tEvXR4+hR8WVlJI7arNV7Rtq8kleZt+mHWZMZ0TJ6TNeuLq66A9LUl/z5R2rNsW2XOyd29ssmwOZRpL1MLudTIybhck4+puebypLzlBvnL+Y5j5mxbdG1jXKjY9jfUNv35uCuEYqV40rNW47X5iE0z9VA+zxnZ/wIIR8C9UlING+O6U1wkhK1VXwf39fGfZ1ijxXfPsK3Qf16ebR9r80VOMq82Z2OaUdtzbzJ2jm1z4upxv1j7pTo1aNjGxO29CvnkeVzLOp0obdGA8XkfKfrUY2KGgp9XIxV2vk4Kvu4kHOY+eqcRnPYcnQs+LKgMXlEc9hw3RpG5+HH1blE7Q3z7+GVnb7q9gghd0d9EtLbmjdyP16381aOdaHWuH+UOqFXj45tTNjbT5G43YVZtFs3I3nH7awb5/u4gGJClMPvRNl20bHgy4LGUF3DRhM3Mg95RM9V1L4UM4tY8DomhNwS9UlING/kNrzUvFk07h9LdbceHcujWfzrx58j/TRmcXGb7xI3zofzbnNWfNtabnM37eRYr2fY39DkxHMYvm6WkXm4eHiNfDnj5ittkIkkhNwS9UlING/kNnxY85YP06Kdd3DmP25f7WdjDv2Yt8lXFvsazyeMYoIzR2inq/YLDIog/TS3Pa/a1/W3cW3rx9WyyV3b50ZSNcXmcy+gOdoYmsOm69YyMg/4XPl5onkLzXzBa5gQclvUJyHRvJHb8HTzRu6DGLnFlhkhhNwX9UlING/kNjxk3nR3wi3w844XzdvdsDtW8G/OCCHkxqhPQjrcvP3jf/yPYUUkmjcyym7zRgghhNwM9UlING/kNtC8EUIIeRfUJyHRvJHbsNu8vepj09W/tXsBV5nTM+ZxxetPCCGDqE9Conkjt+Eh87bnCwuPLv5HmQebR47r33lN2vR3+n5O/hubR//Rf3QNjro2Hn+tzhjDfdOUfy9JCDkD9UlING/kNtC8uWNh6xim/bTr2P6hP7zN0yNE89s671Fs3rPGyOaNX5AghJyL+iQkmjdyGy5j3iRed13sIt7uyNQb2Ocq2eEqY6D+fqxalrnNORe/F2Z+IsP+VlyzG9SMl1TzdnaMtsyxPC5vou7mbgezuZqx5jk151PaotgMvlbH3gxeoHkjhJyP+iQkmjdyG65h3iaD1piAXJiMQ7PYa/9sTnSxD/r7sWzZHxdj0RgPTzV17Xg1V84TGZCNcyxzqmPI2Gjulhp3RqjJOcevezN4Z0oJIeQg1Cch0byR23CUebO7LtPCu8G8+Vhe8IuxQG3zOMZkjPa35ehY8HXlvLIkHrX3cQvq05tjFPfHFtvXzjlLrpcaJHPtYMzRG9vX2TF1LlH7EJlTYKAJIeQB1Cch0byR23CJnTe0wCNjI5TYl7o7N8dW+9tydJwpO1c5jzkHbefb13LHdKA+vTlGcX9sifou2GjiemPbMTddqx7Ba4cQQh5EfRISzRu5DZcwb8U4zF5s4GPTdCh3A7D3xFz0l7bGjOS4jm3r/Jz0oz0Xn/u3Js3mzcfOAE0fRW6co5+TLbs+ldqmHauS6q95M/hEuuZ1vtIGnR8hhDyI+iQkmjdyG15i3vIOj8qYAh8TXPvmCwvFpGQDF/SfzNQU919MaG5wXvu2/eENzqcKHE/YMbNmxzY+R2lrcua+aO72Ats2zVhJOT5drzpW7otiS5prFcwLXquV86i4+S6MJyGEHID6JCSaN3Ibnm7eCCGEkBehPgmJ5o3chofMm+6UuG2SeSeJ5o0QQsh1UJ+ERPNGbsNu80YIIYTcDPVJSDRv5DbQvBFCCHkX1Cch0byR27DbvL3yY9PVv7fbyNH5lLPynsnVr0WUB8XveP0JIaeiPgmJ5o3chofMW3dhXPvCgtQng7dncdWx7Rz8sRrLLPPtVQTKtxXz7dMsMbSP5HsVZ835qLxRHhQ/7Fy+fP10xjUhhDwd9UlING/kNrzMvOX+n9KiuGN3bm2h9vXhLZkKq+fSZ9ppbA1ivfXUA3lfwllzPipvlAfFDxiz7iKfcU0IIU9HfRISzRu5Da8yb7Ioym+KyW+D1d8W8zltWY7tzpbEa33ZxSt1i98iy79lVsxVk8fEmnxC+/tnn75MY8yfEEu9nF/nPEu+Q27i3sw7SefZxME8cr01lvO16M2h+/tsa2Mmmtwm3/q5ueckN0ho2cabfkm2vZDbyj8QtI2Za9MXn0PFjkkIuTXqk5AON2//6B/9I1gRieaNjPIa82bq7K6Yz1nLk5FqFnuJ2/bRcS4mIwHy5LgUFvm8USvIXDWox9KnMUeGXGfyRDuATS7UPjj/HDdj13iLGOQmZy0Y7Bwkh8+1ZUyJmTbzDfDXz23xnEzhuVzj0TUx5DHn12D7Oli/bpW1ekLIbVCfhETzRm7DUebN7rRMO2nrO1JTlSykpZ1fJLU8EvfHZS5ZqI2Q2xVjYfP5dpV50a+GKGyb8HW2LMd+jlH7XtzmyDKmRDGG7csn85z4/nash8acjFUT7+XzcfuclPCifVRfihnURnOvnoMB5SaE3BL1SUg0b+Q2vGLnzRo9VTZ8aLGV8kg8OragPNYo+MfSzDKZNrtzY8ynB42n+f1HeGhcLdddqkLUPkSeC5lvmqu2l769OfjcUbyLMXGj+aQ80j6qL8UMaoNyr7G1PSHksqhPQqJ5I7fh+eYNfCSp5kQX1xJuP+aac9W4nYPtG85tMhM6ds4jBW1f+4E5Knkc83d6icmMzvMW4BcWFuNoGJyPUMvOIDbxYJ4OGeOT/C3gfBH7c5DH8LlYGTP1RTfAj88teE7Q+E0/8JqYihO1rRZL7pFzsLg8hJD7oj4JieaN3IanmzfYb16I8wKbFta8G2e/eCAGz8ddLr0x+vILCwbpU/JUw6V5bL6mnV3o8XnZeWepAbHzMGWdq2joJu7m/LM07ua5MDBKbucN5twPzSF8LlbHnMxR7Ts9sfG5NfmcYdMc6Bqh10TuWejNs1dn8M/rsOEjhFwS9UlING/kNjx/5+3m+I8wX4HMgS6CEEI2oz4JieaN3IaHzJvuSDgjMe9WfDzzVr+o8GTsLln3j+sJIYSEqE9Conkjt2G3eSOEEEJuhvokJJo3chto3gghhLwL6pOQaN7Ibdht3l75senq39uRzZx1TY/KG+VBcb4+CCEB6pOQaN7IbXjIvHUXyLUvLEh9Mnh7Flkd284hOn4WMmb9mzTVweb1zPM6K/dReaM8KP7wmO23ZfnlEEI+DuqTkGjeyG14mXnL/Z90Y/pn8IwxzxzjrNxH5Y3yoPijY35Jr8vq1z7ot6YJeVPUJyHRvJHb8CrzJh+tyu9/ybcoox+ObcpybHdDJF7ryy5eqYO/+SU0Ocw3NlHuRbz9TbjFDdbrXBw5h/12qOzqmFw1f7lWUX5/jqlx8xtkfuzOuO1vl7Xjdn9rLud0/RyLOZX+t7whfcY8X4SQ26M+CYnmjdyG15g3U2d/N83nrOXpY6xm0Ze4bR8dV9oc2WTkQpA7ai/1tr3Ov8SroRCVOTQ/L1J/o82ZAh03yi/HdW7l2PTPd3Qoxwoe16FxO76OIdRyMN9SzKA55Rg6n871RePXePR8GfKY82sv5659V86homZ5eV0JIfdFfRISzRu5DUeZN7vjMu2kdcxb01cW1NLOL6ZaHolHxwrKIQszikv50fYWY5zqjeFzPmP0sjr5/XExMV1zgcYV/Nh2/tH4vk+WHxvMqZfPx0eub1RfihnURnOvnoPHvD4JIbdHfRISzRu5Da/YebNGT9W9hdJIPDpWUA5ZuOtOUEHbRe1RHLVvkGshJiEZAW0TtY/y++NKz8QF4/qPEaXOP5bqRX0J9zFzGs0n5ZH2UX0pZlAblHuQV/0wMyHkeNQnIdG8kdvwfPMmcbcYqoHSRbaE24+75lw1budg+8K5TYZCx805cqHNPfcN2vvcWoZjzkj/5sbwLn8lyq/H5hwXN38Hgy/GdfkX19KOYeuj+VrQnG54Q/rvPn8y17IdjxByb9QnIdG8kdvwdPMG+80LZF5o0wKbd+PsFw/E4Pm4y6W3kMr1pe0kY+p8TDC5szQnau/nr+Wmrcqcf643Ywq+DzgnP149x8/JKJm+syl0gHE1R+4HrmX4HKD5SrwymaPad3pC4/Np8s1zhOPbfui1kHsWevPs1Snu9bBm9ggh90F9EhLNG7kNz995uziycHO1JoSQD4n6JCSaN3IbHjJvujvhzM68c3IP82Z3opodOUIIIR8K9UlING/kNuw2b4QQQsjNUJ+ERPNGbgPNGyGEkHdBfRISzRu5DbvN2ys/Nl39e7sVHu3/0Tnr+hyVN8qD4nyuCSEG9UlING/kNjxk3rqL4toXFqQ+Gbw9C6uObecA5mO/tSiKfi6jYfW8AmC/B87xley9BmsclTfKg+KHncuX+bfyCCG3RX0SEs0buQ0vM2+5/0k3ps/FZNyaNtPPWMCfrziCcE47z/GVnHF9hKPyRnnC5+CxMes/As64JoSQp6I+CYnmjdyGV5k3WRDFSMk3PcMdMVuWY7OLlhfSWl92uErd9BtoYGxtnx/Bjcv1973gmDZf+3tmn7748aeG8Bwzvn8QC8ZvdhTLXFGskvPYb9HKWFO56adjNNfJ5LLlYG6WxZxK/1vepN6OSQi5LeqTkGjeyG14jXkzdWKY7EJsc9byZGyahV7itn103FBMi9R7M7ToOxucTI1PRs39mR8YMzhH2B/FgvHz3Of4fPN3FyvHihjImj/6LTuN27HsOdVydG0MaE455uZR883x/HzYeUzhuVzjbb94Hui5HjgHy1o9IeQWqE9Conkjt+Eo82Z3WaZdJmNePE1fWURLO79AankkHh03lAUb5dOFXOtyTHdlVKCvgnLWcucchSiGxs+59FhBMYcxbLxJfcm9eg4GlJsQcjvUJyHRvJHb8Iqdt+bjtKJs+NBCK+WReNPGmCVLL58u3FEbZTA+fI7CaKxhq4mT50PiqY3mlTHsddIx/WOpXtSXcB8zp9F8Uh5pH9WXYga1QbnX2NqeEHJJ1CchHW7efu7nfg5WRKJ5I6M837yBjwj14zNdWEu4/YhrzlXjdg5hX2UyEchA5bbzZ3albmrfzDMD5i8043fOEfZHsWD8NA66+TtvUm/qp+JEbavFknvkHCwuDyHknqhPQqJ5I7fh6eYN9psX4by4pkU171TZm46L+fFxl0tvc6XmxOYS1YVa+pl4s+DbnFE7F9e8dXw774oxGqj/QMwaJ41N54pigJxvNkOCzjn3A9c1fD7g3CxgTiZvxpabfM6waQ70vKPXRe5Z6M2zV2cIX0eEkNuhPgmJ5o3chufvvF2cukNGCCHko6E+CYnmjdyGh8yb7ka4rYh5p+JO5k13im5oOAkhhAyhPgmJ5o3cht3mjRBCCLkZ6pOQaN7IbaB5I4QQ8i6oT0KieSO3Ybd5e+XHpqt/b/cmXOU6nDWPo/JGeVD8KteUEHIK6pOQaN7IbXjIvHUXubUvLEh9Mnh7Fkod287BH6uxzGq/Yfl8yrk2c5oUfjN0BPQcoNjZnDXmUXmjPKdcv/Zbtv4fNoSQ16I+CYnmjdyGl5m33P+kG9P7+it9g3T1um3gyFyPcNY8jsob5UHxR8dMr7XZr930G9eEfGDUJyEdbt7+4T/8h7AiEs0bGeVV5k0+WpVdp+am7T6nLcux3dGQeK1vd7aWv/cluyGf6q/qTzdGL7txTV67Q9fuoOQFuWk7n1vzO2BlXBTL1DkXwJyavs1Hz25On02u/Htnqa3+EG6Tt7TXk2vOI8nOR8j1/lp05qbnpI+5T8KWmzHx62JxzUr/W97IPjNfN0LINVCfhETzRm7Da8ybqbO7Yj5nLU+mpVm4JW7bR8e5mEyBtrd5XN7cLhcmMzi3E9xCbOdg4qs3indzy+VmTg65PtGc0ByamGlfr3NwLUtR4Y3stVheOyPnUNF/TJj2hJBLoD4JieaN3IajzJvdNZl20jrmrekri2Jp5xdELY/E/XGZSxZqI6CyLLg+LvicWbI4T4YA79qBxXttDoIfS+q77cw42s63X4uXYsUYNt7IvuRePQePeW0TQi6B+iQkmjdyG16x82aNnqp7+6SReHRsifKUYi4jEyBEOSuDJm5oDs4sST0av8S+1B3DORZes7p7VUB5M/L8ybzTOWi9tO3NzeeK4l3MNRvNJ+WR9lF9KWZQm+g1MUCzg0kIeTnqk5Bo3shteL55mz5SahY0NRS6UJZw+5HVnKvG7Rxs32hui/hkFGbfoyYIzNG1raScm24U7+ewUp6vAZiTaVv/dlBjYd72WvrxLDI2b2Rfco+cQ+K7z5/Ma95da0LIy1GfhETzRm7D080b7DcvcnmxTItk3o2zXzwQg+fjLpfeZB3eoFxAY0us5F3skNV4WbRdzBoTjU1GB8UKfg5gTnoeua89Fz8n+4WFMmZ0bZpxzLXMsu0seTxzTRJwbiZ3+Py5uS/HBNesdw5NPmfYNAe6Fuh1lHsWevPs1Snu2q6ZPULIc1GfhETzRm7D83feyKUQs0GHQQh5E9QnIdG8kdvwkHnTHQa3+M+7HzRvV8TunrV/o0cIIR8b9UlING/kNuw2b4QQQsjNUJ+ERPNGbgPNGyGEkHdBfRISzRu5DbvN2ys/Nl39e7s35KxrclTeKA+K8/klhJyE+iQkmjdyGx4yb90Fdu0LC9NPX4TfdOyhY9s5+OP6N12TGn/p6ptvgz4yr1diz/9Ijsob5UHxh8dsv7nKL2QQQhT1SUg0b+Q2vMy85f5PujG9lNMiPq3hsrDbMVPZLu6PzOuVoGtyBEfljfKg+KNjfuHN4QkhGPVJSDRv5Da8yrzJR6uy41V/XHYKtjltWY7tborEa33ZLSt14e935ZiYt/gblnBemXY3ZzaCLtbMcz5/+/tjuquHYpWcx85znnfTT8fQ86vnWbDlYG6WxZxKf94cnhDyEVCfhETzRm7Da8ybqZPfGbOLus1Zy5NJakyDxG376LgyL+L1pzLm7ZlCMK8cN+NnUMwZBTtPE1+9eX1B5lnzR7/HpnE7lj33Wg7mVooZNKccc/Oo+eZ4Nn12HlN4Ltd48FyWYiaPOb92cu7ad+UcKtPzw59CIYRY1Cch0byR23CUebM7NtOOlTFCnqavLMilnV+MtTwSj44rbuEXxIjInGcHYvp15iVEsXINZsmYk2FpjQSKOYxh483hS+7Vc/CY55EQ8vaoT0KieSO34RU7b+3HfpOy4UOLtpRH4tGxgmIZWdwnAzA8L2HTGMpWEyfXUOKpjeaVMawZ0TH9Y6le1JdwHzOn0XxSHmkf1ZdiBrVBuQdpdjAJIW+N+iQkmjdyG55v3qaPs5rFVD+K00W6hNuPy+ZcNW7nYPsu5jaZkTym1NnBa9vOvFAdjJlxLGmMTTevN8i58ubwJffIOSR4c3hCSIT6JCSaN3Ibnm7eYL95gc0LdVqg866X/eKBfsRp4y6X/i1bri9tJ9l5TKZrUbcyr1xvcmYDMRCzxkljkxFDMUDON5shof7NnvQD1yK8hnBuFjAnkzdjy00+Z9g0B3qu0HOZexZ68+zVKSa/aM3sEULeB/VJSDRv5DY8f+eNEEIIeQ3qk5Bo3shteMi86e6G29qYd15o3gghhFwH9UlING/kNuw2b4QQQsjNUJ+ERPNGbgPNGyGEkHdBfRISzRu5DbvN2ys/Nl39eztyGGdd66PyRnlQnK8bQt4e9UlING/kNjxk3roL4doXFsq3Pvcspjq2nYOfj5TVXCaF3+bssXqOA7h5nGJqj5hnxFm5j8ob5UHxh8dsv43r/9FCCLk+6pOQaN7IbXiZecv9T7oxfV5kbd5U3rPQPrzYJ47IscaZY5yV+6i8UR4Uf3TML7zhPSF3R30SEs0buQ2vMm/y0arshslvltVdMZ/TluXY7npIvNaXXbxS9+3nz8m8tb+NNjG1mxfg2eTZ3yabdgN9ztzIzKGcW57DfBP1T1/mfnkcew6WnMvOUeZSyuE46Abxy3kuz8XQGbfp58b1v6lX43rs+zkWcyr9ecN7QsgzUZ+ERPNGbsNrzJupq3cxkLDLWcuyULrFXeK2vetbf8h2dmoTMp7G9Fj6moW43iS+yekWazsHXezzj8O688r1agqKSs7mtk11Xr1xXHudm7bRY3QuBjyuQ+N2fB1DqOVgvqWYQXPKMXQ+7XOdTZ+dxxSeyzUevEZKMZPHnF+TOXftu3IOFTXLy+tKCLk+6pOQaN7IbTjKvNmdlWknrWPemr6ycJZ2ftHU8kjct1HEFMi8ZpdQF+rZxEwL/2JB9vnL+c0qJgTNQY9tzGOMU73x/Mg4AhorVwTnYkHjCn5sO/9ofN8ny48N5tTL5+O98+/1s2UBtdHcq+fgMa9bQshtUJ+EdLh5+9mf/VlYEYnmjYzyip239uO5SfVjSbQAj8R9m4bZsOVSNm1tbMKZjJH8URs9jvpl5BrJWGlclMPi42isXKG4c2kIxrVmRHP6x1K9qC/hPmZOo/mkPNI+qi/FDGqDcg/S7GASQm6B+iQkmjdyG55v3iTuFj39yEwX0xJuP9aac9W4nYPtK8d2AD/X3FZ3CKcyvEm8zVmMx2KxtrnRsY0B5FyaG8+PjCP4scy584b3pn4qTtS2Wiy5R84hwRveE3J/1Cch0byR2/B08wb7zQthXlDTQpp348RcaFv9+NPGXS7ZCZl28b5kg6jtl3+A7uc2Ld41v2k850wxGc+0gwbSH/s+WWbsXD+bkozv48cRXHmep3xZY+5rz6UBjKs5cj9wjcPnBs1X4hVwfXvn0+Rzhk1zoNcAeo3knoXePHt1iskvWjN7hJDroT4JieaN3Ibn77xdAN3pK0VCCCHvgfokJJo3chseMm+6C+G2IOYdkmuaN/6tEiGEvCfqk5Bo3sht2G3eCCGEkJuhPgmJ5o3cBpo3Qggh74L6JCSaN3Ibdpu3V35suvr3duQwzrrWR+WN8qA4XzeEvD3qk5Bo3shteMi8dRfCtS8sSH0yeHsWUx3bzgHO54ExjmR1nhfmrPkelTfKg+IPj9l+a9b/o4UQcn3UJyHRvJHb8DLzlvufdWP6wiNjHImdG5rnlTlrvkfljfKg+KNjfuGN6Qm5O+qTkGjeyG14lXmTj1bl977km5/1t8h8TluWY7vrIfFaX3bYSp3mg2Nk2h2UaUEGsWbM8ntj0RzL4+qN49HvjwloLKGJJ2lf1D6cgyH3s7/vJuc9le3vqNWPvEvOZpdTsOWc0/VzNLlNPt6YnhDyTNQnIdG8kdvwGvNm6uxvrvmctTwZq2Zxl7htv5hPMEaOe1ODYu2Y2XxIIZqjPNo5Rue1mKcQjBWdd29u0RwMzU+lSJtaMGhcx/TzbuZiTIxvJ+R5zW14Y3pCyKtQn4RE80Zuw1HmLS+EafEUTbtcxjx5mr6ycJZ2ftHU8kg8apMLnTGEkZiUZcFGcSlH8d6xgvpuHavXvhQrxrDxxvQl9+o5eMxrihByG9QnIdG8kdvwip03a/RU2fChxVXKI3HXZngMYSQm5RETUcJN/+hYQX1lLL9zpu2i9ihuyxV5bsScJAOi9TmHM3J2rCi3j3cxJm40n5RH2kf1pZhBbVDuQfhjz4TcD/VJSDRv5DY837xNHzs1i56aFF1MS7j9WGvOVeN2Dk3fzhioDsYmo6GxPKYUojn66xHNzbfLBGPlODBUvblFc3BIH96YvuQeOYcEb0xPyP1Rn4RE80Zuw9PNG+w3L4R5QU0Lad4ps3/cL+bLx10u2QlZ9KuYxVb6lVyivGivxpxxKPFoLrlvNLea0+QNxrLnnaU5UfuVOTTk/machM5RhM4rfG6auSQtxpzMUe07PdHxXJt8G647eo3knoXePHt1insu1sweIeR6qE9Conkjt+H5O29kN2Ie6BgIIWQ36pOQaN7IbXjIvOkuhDMU8w4Jzduj2N2wZkeOEELIZtQnIdG8kduw27wRQgghN0N9EhLNG7kNNG+EEELeBfVJSDRv5DbsNm+v/Nh09e/tyFM56/k4Km+UB8X52iLkQ6M+CYnmjdyGh8xbd5Fb+8LC9PMc8Ft9a+jYdg5wPg+McSR+nsDw5r9te/U89wKv/QEclTfKg+IPj9l+s5ZfMCHkWqhPQqJ5I7fhZeYt93/XG9O7OeXYt8v53wV07Y/gqLxRHhR/dMwvvHk9IVdGfRISzRu5Da8yb/LRqvzel+w4RT8U25Tl2O5oSLzWlx22Uqf54BiZdndkWmxBrBlz5bfUyuPojem/lLkJMr9Pn+e89vfM6kfPYf6g/VSxvGaLOHiOcr39Zqtcm6ncm1uzEyrY8tqYiSa3yceb1xNCjkJ9EhLNG7kNrzFvpk5+u8wurDZnLU/Gqlm4JW7bL+YTjJHjJlcGxdoxs7GQQjRHebRzjM6rHpeF3fbXNhb9bbdefou2j66ZjlvCzdwM2VDasWrBYOeGzmHLmBIzbXjzekLIGahPQqJ5I7fhKPNmd02mHSVjnjxNX1kUSzu/IGp5JB61yYXOGMJITMqyGKO4lKN45zj/nZuaCd+mXMssidt6YW973zYLmAxj2Hjz+pJ79Rw85nVHCLkE6pOQaN7IbXjFzlvz8VhRNnxo4ZTySNy1GR5DGIlJecQglHDTv3esBkDjOebMksa1n7DWvu5SFaI8IfL8ydySAdH20VhR7ijexZi40XxSHmkf1ZdiBrVBuQdpdjAJIS9HfRISzRu5Dc83b9NHSs2CpkZDF8oSbj+ymnPVuJ1D07czBqqDsclEaCyPKYVojv56RHPz7RSNu/rV/FF7d83mcdvz6iG5ePP6knvkHBK8eT0h10Z9EhLNG7kNTzdvsN+8yOXFMi2SeafM3lxczJePu1z6MSS8KbldSKVfySXKC/JqzJmCEo/mkvsOzy1h2mvb0fywvbQx1yxL49IXxT253XzewtrcwudvdczJHNW+04th7i/YcpNvw3ODXke5Z6E3z16d4q75mtkjhDwX9UlING/kNjx/5428BDEVdBKEkDdHfRISzRu5DQ+ZN91hcKZg3v2geXsldpds/Y/rCSHk46M+CYnmjdyG3eaNEEIIuRnqk5Bo3shtoHkjhBDyLqhPQqJ5I7dht3njx6YTa3/7t/q3gY6t7Uc5K+8ern6OUR4Uv9J1JYSsoj4JieaN3IaHzFt30ep8YUH61r/FKt8sXMN/c/KoP77fsPjabzKKwt+Ns2xd3LW9u0bh36yNjr91Hmdy1lyOyhvlQfFHxpS++jpSjjoHQghEfRISzRu5Dc83b/63r1J5xYhNpsn/ZMVBf4A/uFjmOTTt0vl9SuW1/lsXY23v+4l53ZLHs3UeZ3LWXI7KG+VB8UfGzH3lPqrm/4ejzoEQAlGfhETzRm7Da8xbZxep7jRp35UdvDSH6cblJSfMIWG7a2Zza8zspC3aecNpsNeh6WvmE9zoHM5J89m8mXLdSryes23fXNe2fZMvt13Op40nrbVXcj0YOx1tOkdbXhsz0eQ2+W5zI3sdx/6MSzh2O+f1c8TXjJB3R30SEs0buQ3PN29padeFp9lxc6ZO8+cFyRoDQ1ms5jRBjlKsRItlbw7RudY66TvPJRsLKUi9WUhzvDenYMzaL+dzC3ZpJ9e1xsN80TVq59/G168pHNuzco6bxpSYaXPLG9mbWL1+wdjt6yk6x/XniZB3R30SEs0buQ1Hmbe8uKRFRTT9DU9nx0yRhUf6mEVJc0wqC3K0CPm6KAeq0342R9S/Gcfs1klM65o2iZwLzF/j9diM5fP5Ou3j82nZmKZ6M3mbD+XNCubZa1+aVdDYgu/v57J7zMncNPFePh9fO+eony0LqI3mXjsH21eP/WNumMj5Vua8Nh4hpPokJJo3chtesfPWUnYMwnxSH+SJFrJSrOSFzRkKbRcdN4A5aFv/WKqnMYPFVuNoTv6xVFd8vCnLNZcFO81XY6N56w5OYa39gmDsLecYxbvIc1OMymg+KY+0j+pLMYPadF/PBtdG/gH06XOJjebVso8TQiDqk5Bo3shteLp5k371M59EzTMtwrZKmXb1xBjM1I/JmjkEOVy7+aOtXJgWxVyzMgc7luYM5p/bSwGNHcVtPldf8XGQB95MvraLzlHiyODG18QTjj2Vcv3iHM3zWutHxkx9b38je9dX+6Br0MzZ9mnmOvY8EfLOqE9Conkjt+H5O28Stx/tOMNQ40kmf168bB1ayIQgh71VlL8hudYtv7CQ1JlDba9tmr7FFHTywTlpPpvX4uOobI0uypfbgDnpx9g+HrX3+LET3XNM9faaNs/L6pjF6BQtngvBlpt8zrBpDjA/e0386ybTm2evTrDjKHYHFM3Z97HltfEIIdUnIdG8kdvwfPNGboH5GzZCCPkoqE9Conkjt+Eh86b/wneL/LybQfN2J+wumf+YmhBCPgLqk5Bo3sht2G3eCCGEkJuhPgmJ5o3cBpo3Qggh74L6JCSaN3Ibdps3fmzaZ/VvAm/CM87jrDGOyhvl+SjP8WGULyPxbyVb8pde+CckV0F9EhLNG7kND5m37sLV+cKC9K1/W1W+KRjh2ooOXxv2jLF2/lH9Wr8zWJyfeV72nodw1LmcdU3Ont9Z8xZGch8yfvut3fm1YePo7x9TvRs7/6PtGcbtzOt+FH6O9lvE5KWoT0KieSO34fnmTRYFG0/l3hu+H0fKaUE5dI1AY6y90a61iepHch8NOr/RLyT05nvUuZx1Tc6e31nzFs7M3SD/Py5fC/LlFf1/zJuyurPezM//f30iT7s2D7CY47Qr+QxvS/qoT0KieSO34TXmLTAOkrP+a7/0RePYWKfP8ubd/g20LDj+x13Nz2TMHwGb/CWPxqedQ8k1x/SX8hdzQOcjNOdhrk8TT4LnXdpH570Y0zwHtg6NFeWE16CQ89jneB4PXk+dg52LYMs5p+vnaHJ3554bh9dvMb6NN/2SbPuKey1MJx6ON3JtR64bOs/FNZnCBvNaqLiYjlOKGR/zO0tSr+Pq2L6PLTft5+d3Of/O6y4Br1MGPCco1sxj7HUx+v+GzM3Plzwf9UlING/kNjzfvMn7fHlj0xUmEywYcBxt2+lT30gTdmExxqwel/b6ZhuZg6ZvM6/pzbo5nWgOTT9lWkTm1GkByoU2Po8ZtB8dU+NyHOSs8SinHPu8Brtzk/vUgkHjdiybr5aD57kUMxIzbV52o/pUWrwWeuPtuLbwuqE8Oe6uSTmemebWGg13vRflhJtfa0yC6+T6zDlcftsezd/nidDrlFoun5ONzxOad54fuO5yjOZY50NeifokJJo3chuOMm/5ja5ZAGLzVpE3M+mjb5Cl/6z0Zo3eBPXNfrRPU54Ximoweu39GDaOjpUo52jb3nnsaY/OQbBttsT9sccsVG99o3oB9euN54+F3Mecv9RpmzAPuCZdpL08V/P/IxO+nHBjNuYtmk8vbs+tzjmYv89j8bnQuMJILOdKY6M4ymvLvk5AMfJ01Cch0byR2/CKnbeWsjBE+XpvgqN9XHkybWZBWuQxc7K7cLZddKz4mJZH28r49l/yQpRD26O4b69tc4OE1m0Zy+aydQ3y/Ms46Vra9uh6+sdSHc6hi1nwR/NJeaR9VF+KmZGYlHvjoeM9160Um2tSIhj9f9b8vyEs8iVcrDFvW19LKH+Dm3/UXuK961TCmZFYzjfwuijhpr+vE8w/aMjrUJ+ERPNGbsPTzZv0s29gNc/0Br14b1uMY9sN9kHl1C/cKdDFx8Xz7qKWcw5d4ORc3TzQmCDnRHse9eOaHAeLUdR+dEw5v8VCGIwV5dRju8g7ZF5vd6P6PLaf68bnS48Xz9HEYl5RnvS4uCa1USG9FupcpV8Zs/eFhYwfszFsndfSluc3mr/LU3FzmvOj52Tj89R9XRRsGcxR+tX/F8jLUJ+ERPNGbsPzd96mN8354xH3Jl/jSfoGaWO2vRD1id5UM25uizHmN93693lJ/sbkWpffkF0O/cLCYg7RWE3cvOlno2Xaa07UXseQY8GOaeOJvADJtbQGB40V5SzF5hp4pK1bwOD1NDmnebl66ZhzzX3rdahMC2/tq8+JbWfLTb55jnB8289cI3ijesHNNZsBNJ7NK7iyvbbd6xbmAdfEI21Nm9nM2L7tc2iv0dxH2pv/p4LX7bbnN55/9LqD10kq0Hmuxja8LgRXbueIzCJ5BeqTkGjeyG14vnm7AM0uwY2QeT/r3f+ZY5EPQTY46DXD19J933M+IOqTkGjeyG14yLzpv1DdG/P8r9Rrmjf5F/Fd1hK7k+B3QI7mmWORj0jZVU//c/G1ZBDjdtH3wndEfRISzRu5DbvNGyGEEHIz1Cch0byR20DzRggh5F1Qn4RE80Zuw27zduOPTcmBrP7t4wGcNcZReaM8z7g2t2L+WJUY+LHqU1GfhETzRm7DQ+atuzB1vrAgfevfwyy/Mdbg2opOee/fMqdR9izee/o8yuIam+dtbT69+qPO5axrcvb8zpq3MJL7kPHbb3zOr43426gTqd6NHX6h4WjOvO5H4efILzQ8DfVJSDRv5DY837y5nxSQcu8N3Y8j5bRgHLsGbJzTmbxi4YHXePCPzHvzPepczromZ8/vrHkLZ+ZukP83lq8F+6Ufb8rqznszP///2Ik87do8wGKO067kq9523gn1SUg0b+Q2vMa8BcZActZ/zZe+aBwb6/SJbhg9v0HqgrJvTlP+1C+3sf1LvtJumrvE3Hw6uac+hqatGauJJ8HrUtqX3IvrshjTXA9bh8aKcqYe+SOyEmt2MnMecL3S0fyRu8hdEzsXwZZzTtfP0eTuzj03Dq/fYnwbb/ol2faVtdfCyvOVMvprO3Ld0HkurskUNpjXQsXFdJxSzPiY31mSeh1Xx/Z9bLlpPz+/y/l3XncJeJ0y4DlBsWYeY6+L0f83ZG6H7PiTLuqTkGjeyG14vnmT9/HyxqUrSCZYEOA42rbTp75RJuzCIcdaYY43z8nmT9idiJq3zn16s25S93LrXCvSdu6fF6BcaOPzeEF7P2+9Ln5Me72CnDUe5ZRjn9cAr5fHX0efr5aDa1mKGYmZNrxxvcbdNSnHM9PcWqPhrveinHDza41JcJ1cnzmHy2/bo/n7PBF6nVLL5XOy8XlC887zA9ddjtEc63zImahPQqJ5I7fhKPOW38iaN/jYvFXkzUr66Btg6T8rvRmjNzl9Mx/t05TnhaAxEMreOZk33nojdm2H2m/J7WO5b+c897S38xjN2Yv7Yw+6XoL08XNZG8v3yZqe45lp4W3ivXw+PnK9o/pSzIzEpNwbzx8LuY85f6nTNmEecE26SHt5rub/hyZ8OeHGbMxbNJ9e3J5bnXMwf5/H4nOhcYWRWM6VxkZxlNeWfZ2AYuRw1Cch0byR2/CKnbeW8sYf5eu9yY32ceXJtIEFp7JjTqkEb8Qux6j9ltw+JmWZnxggH5dy1B7FfXttmxsktG7LWDaXrWsIrpf9KMuP4fNF8S7y3JYFfzSflEfaR/WlmBmJSbk3Hjrec91KsbkmJYLR/6fL/x8lusyXcLHGvG19LaH8DW7+UXuJ965TCWdGYjnfwOuihJv+vk4w/6Ah56E+Celw8/YP/sE/gBWRaN7IKE83b9LPvkHVPNMb8OK9azGObTfYB5VTv2Yn4KE5TcgChW/ELtfC59mSu21bP67JcbAYRe19bi37uCwii4UwGCvKqccdQxBfLy2medsxXL5a784XkvryxvUFE+eN66WMnpONz1P3dVGwZTBH6Vf/XyCnoT4JieaN3Ibn77xNb4rzxx/uTbzGk/QN0MZseyHqE71pZvzcdsypyVfIbc0bsm3n8uQFIMptY5qviZsxstEy7eF4Joedt5Z9PJEXILkOvHF90jxHOL7tZ65RMz+Lm+vytbDyfJWivbbd6xbmAdfEI21Nm9nM2L7tc2iv0dxH2pv/r4LX7bbnN55/9LqD10kq0Hmuxja8LgRXbueIzCI5A/VJSDRv5DY837xdgGYX4AMh5/Wsd/9njkU+BNngoNcMX0sf9z3pgqhPQqJ5I7fhIfOm/wJ1b7zzv0Kvad7kX7wfZa2wOwl+B+RonjkW+YiUHe70Px9fSwYxbhd9r/yIqE9Conkjt2G3eSOEEEJuhvokJJo3chto3gghhLwL6pOQaN7Ibdht3m78sSm5IKt/Q3kAZ41xVN4ozzOuza2YP34lBn78OoT6JCSaN3IbHjJv3QWl84UF6Vv/3mX5jbAG11Z0+Ht2M8bK3988YyG1Y+wd7xnz9DTXUWSe/7X59OqPOpezrsnZ8ztr3sJI7kPGb78ZOr824m+tTqR6N3b4xYejOfO6H4WfI7/4sIr6JCSaN3Ibnm/e3E8GSLn3RuzHkXJ6oz/FwI286Y22e4QjxnjGPD1+TCmP/jF6b75HnctZ1+Ts+Z01b+HM3A3y//3ytWC/PORNWd3Bb+bn3z9O5GnX5gEWc5x2JZ/hbe+K+iQkmjdyG15j3oIFXXLWf4WXvmgcG+v0iW4IPb+xmYXA5+z011jeMVwdfzrX+aNk0y4jc9C4jOPGsL8Z1Vw3cx07c6jDKE1bk6+JJ9lr4duX3IvrsxjTzRHmTJJ4lBNdcyXnwdcEXm+dg52LYMs5p+vnaHJ3554bh9dvMb6NN/2SbPuKf+2kUGe8kWs7ct3QeS6uyRQ2mNdCxcV0nFLM+JjfWZJ6HVfH9n1suWk/P7/L+Xdedwl4nTLgOUGxZh5jr4vR/zdkbn6+ZEZ9EtLh5o23xyJn8XzzJu+/5Q1H3/kzwRs5HEfbdvrUN7iEfcOXY62wx3acXv9mPoPje+q405vvop2fSzm2uxRzjq3Xbc6RF6Caw+SufYP2Uo+ujx8TXrdgrCinHPu8BnxNHBq3Y9l8tRxcy1LMSMy04Q3uNe6uSTmemebWGg13vRflhJtfa0yC6+T6zDlcftsezd/nidDrlFoun5ONzxOad54fuO5yjOZY50MQ6pOQaN7IbTjKvOU3oOaNOTZvFXmTkT76xlX6z0pvoujNSd+ER/s05fkNvFn4bZtef388Mr7g20o9aif4MfTYvCk3N7+3ebM6c7Cx3Ldzvfa0t/MYzdmL+2MPuiaC9PFzWRvL98maXisz08LbxHv5fHzkekf1pZgZiUm5N54/FnIfc/5Sp23CPOCadJH28lzN/y9O+HLCjdmYt2g+vbg9tzrnYP4+j8XnQuMKI7GcK42N4iivLfs6AcVIRX0SEs0buQ2v2HlrKW/YUb7em9NoH1eeTJtbKGybXv9eOwX1tx+taP1I/6aNXNOy2MB6A4r7mJTlGth/yQvaLmqP4r69ts0NElq3ZSyby9Y1BNekd719vijexSz4o/mkPNI+qi/FzEhMyr3x0PGe61aKzTUpEYy+N3T+H1RcrDFvW19LKH+Dm3/UXuKj/z+PxHK+gddFCTf9fZ1g/kFDlqhPQqJ5I7fh6eZN+tk3lppneuNcvOcsxrHtBvugcuo3f/ySsG16/XNfXXD2jZ93KXNZrlHQP1hApG9zM/fROWTatnkeuSBxsBhF7X1uLfu4LCKL8wjGinLqcb3mSxbXxOWq19uOZfLVene+kNSXN7gvmDhvcC9l9JxsfJ66r4uCLYM5Sr/mvY00qE9Conkjt+H5O2/Tm9n8sYV7863xJH3jsjHbXoj6RG92GTe3Jkd6I1zpLwuOtM1vkE3fJDR+QvvkfmI0tN711zf0OoZtK+T2bkGJ5mBj2qeJmzzZaJn2cH4mh5+TjmnjibwAyXPGG9wnzXOE49t+5hotXgOKm2t+7aDxbF7Ble217V63MA+4Jh5pa9rMZsb2bZ9De43mPtLe/L8bvG63Pb/x/KPXHbxOUoHOczW24XUhuHI7R2QWiUV9EhLNG7kNzzdvF6D51ztZINfnWe/+zxyLfAiywUGvGb6W+N42gPokJJo3chseMm/6L0f3hjn/6/Ga5k3+pUq/0GJ3EvwOyNE8cyzyESm79+l/Yr6WDGLcLvqeeyXUJyH99E//dBaqU9G8kUuw27wRQgghN0N90l7RvJFLQPNGCCHkXVCftFebzBvvsEDOYrd5e/XHptHf3K3+LR45hLOu81F5t7w++Joh5G1Qn7RXNG/kEjxk3roLXvCFBelX/0ZFtcPkbVmcAfZbXSL4Dbm9wDmUv9N5tUkYvD6rHJXHc/b8UPzhMeNvTBJCroX6pL2ieSOX4CXm7dmLsyMbt6ZNmuunA+akoDnk2Kevn179Ddyzr/+jnD0/FH9wTPsFmPCbkISQS6A+aa9o3sgluIx5K/HVm17rLl1uL2YIxUt+Ofb98i5JYKD83FZzSdjMLbctO2wlpjt60k6OZaFvd/na35iazhnEmvHL7k403/I4eiPrTM5vd41kDlM5vv7zWIs56LHv51hcv9IfvQ7afGPXYDmPJNteyG3Ba0nral90DvN1ythxCSGXQ33SXtG8kUvwEvNWF8MiXWzTcV2oo98r0t9yyu3n/NkEaJ7cL1hUaz3A143kMvH4htbmWjTnNZmpes4ZFJvMnMbyueo1QPPN8wqu5WJuM3YHqV5nj73+OhaaQ3TNSjEjMX/9cgzNfcc1AP3ieYDX0sg5+DaLMiHkSqhP2iuaN3IJjjJvdgdl2tHpmLfFApjwcVuW45K7MXu+vSyaGvd9skz91CkbpW7OXq68UOuxIcqTC9KnXBffThiJSXlxLgktR3F/7DGG7a1v8i5lzT10DjZG80bIlVGftFc0b+QSvGTnDfVDC6iU8wLqjITGfXu7mPv6ijFPSi9nN5fiTIhrb42tKhtclHckJmV7riVc20Vxf7xAnjM5h3Q+tn3v+vt8UbyLuX6j+aQ80j6qL8UMaoNyQ5xZG+pDCHkV6pP2iuaNXIJbmDcTrx9poXjzMdpkCOrHZYb5Y7GCHcssxHO7IFdqv35D62l3r+lbPwoEdTDWjt+cK5qvnk+J53Zadn08kuPtbvJe22qx5B45hwS/sEDIfVCftFc0b+QSvMS8pQWx3YnqLdrT4lh3rOzNmm0O7WvnFbXJVWmRNXVqVmz8kBta2xwVYyhc3rzur8acWSnxfTeyduRxWnMXXv+Sc9s1s4Dr15t7k2/DNRCz7Otzz0Jvnr26ij2P9toRQq6F+qS9onkjl+Dp5o0QQgh5EeqT9ormjVyCh8yb7ja4j4nmnRCaN0IIIddBfdJe0byRS7DbvBFCCCE3Q33SXtG8kUtA80YIIeRdUJ+0VzRv5BLsNm93/dh09W/1yGmcde2PyhvlOfs184zX5DPGIOQGqE/aK5o3cgkeMm/dxaD/bdPmm46HLSzTz2zgbwQWRsdaa/dofcSeftLntGt6IGfN6ai8UZ675O8xOsZau0frI55xDQhJqE/aK5o3cgleYt78DdqPeuNGuT3PWiT2jrOnHzrvZ53nFs6a01F5ozx3yd/jGWMIe8d51vzI26M+aa9o3sgleI15S/3MrZiaXHKsH8fa30Jr6vW3tGSM9ve+ZPdJfpdssQtVc5aduZxzvhn5py9l1y4flz61HbhRutbnw/l3xqZdvzmXSH9bbMoxzbfpUz9edv0k2My9nGszpxTTuQTXFI6V6zvnLzRjB89l87tm8ntnnfPTOZm5ZWx5bczE4nqX/s+/mf2GMVPvxXOr5Fzzc9Gcd5Nr4HqEfZPqOX6Q173ECNmI+qS9onkjl+Bl5i0dislqF4R58c+AuLz5yx0ApoUyxesczHj1DgbC9AOqzcIqdfKoi0f+EVfXt2ln+sP6ec7w5vQ+hycwXamimXte+KTg85k+y2vq0LFyjs7557HRc9FSx5sK83lY7JiSw+eq5YExJeavd465edR8wfVD49d48JopxczWMafCMo+Qc5Xrn4upT821/hw01OcgOAc7lrS98+uekB2oT9ormjdyCY4yb/kNNr2x1n85p5o181aP7WPJMWtaFPRG6XWx1jfz8M2/jN3EE1q2cXSM2gmL+LTQLHYCbD+fQ5CYPU/U1vfLfcr5+7jv42N+LNTHHvs+We4cBbMAv/3N7KO+OleUR4j65Me165Hw7aJ5+Dg6Ru2ERfwCr3tCdqA+aa9o3sgleOXO21T89uunzyXWyZnbfUkLRq6X3OnNPBmH2bvN5lFVP36xObVs4+gYtROiuF/MbD3KYXZawrawH1jEXHlxTdFYtg86trEu5bmQ87c5emP63FG8i7neo/mkPNI+qi/FzFqOEq5j6rHPI0R9ovaW3Hbl+RVQHB2jdkIUt8+DFG09ynHk656QHahP2iuaN3IJXm3e6pt/jk3H8GOR1E/+IF//Vui7z8m4ffpU8stYrp9+zJNzzvPIJk/idh7o2D9KnQDqV29OH+WoRf2YLBfmfu565HZSWMnXXNNoLBuHx53nwpHNYnou6t9xrY0pj/UcTf3ImKnvFW9mP5eDMadCM27F5Zr7jF2PRd86jw/+uidkB+qT9ormjVyC15u3RDVaifwmLv+SL6pt28Vo0WcxF9Ne2pZ88Mbl6Ng/Sp2wiE8LTc1vTlhv6I5uhq51qL72k1wyTmkHdzcEXxbM9YFj2T694zp2ksY9uV1rStbGzAuyr5eOq2OC623nLNhyk2+eIxzf9kOvmdyzsGNMoXlulaZ9ks8b1RXC19JHf90TsgP1SXtF80YuwdPNGyGEEPIi1CftFc0buQQPmTf9l7H7XGfe1aB5I4QQch3UJ+0VzRu5BLvNGyGEEHIz1CftFc0buQQ0b4QQQt4F9Ul7RfNGLsFu88aPTa/PWX/gfVTeKM9Z81bOzk8IuSzqk/aK5o1cgofMW3cB7HzbNBm7xbftDlhM7TcIRc0Yj2LneOI5HMpZczoqb5TnLvnP4MpzI+QDoD5pr2jeyCV4iXnL91Y0dQcsWNm4NTnS+J8OXATtHE86h8M5a05H5Y3y3CX/GVx5boR8ANQn7RXNG7kErzFvqZ/8BtX8K5xzLjmuu2el/6JefztLxpBj9xtwFttXWBsrh80OXm4r42g78/tUwTm0O4D2HMTwTXHeCN7Nq+mXZNsLpe0VbgQP51rmV5vbcpBz9XUGByeEPIL6pL2ieSOX4GXmLR3Kj3LmBbjGZjOSAXFZ8BY3pu/NxdetjSWPJh7ecLscL8/BoQYv5y3XI/94qjnuzacUlTreVFj8vWHGjik5fK5aHhhTYv565JibR803x7M5sfOYwnO5xtt+8Tw2jDkVlnmEnMuZqJpr7TkI5urb1nKQUx79dZUDn4cQcijqk/aK5o1cgqPMm91FmHYM1s1bs5DVBW3eeZg0LWrdG9Nrf8mZxy19be5cl9CyPMKxpsV53sEp2Dzo2MdsXlSP+ts+WW4OgjFsvBF80FfnivIIUZ/8uHI9UN9oHhqHOQdeZ4SQw1GftFc0b+QSvHLnbSoecWN6WQjdWJrL54ziC9ziatu7votzsHNB46FjG+tSzl3mZ3P0xvS5o3gXcz1G80l5pH1UX4qZtRwlXMfUY59HiPpE7S11x6+gfVBOFF/QeZ0RQg5HfdJe0byRS/Bq81YXrxybjutHUpbUL74xvZT1o6+CjiOPujDmsP2IDIwl48wuaD4Hm0dzy3HGnIOrq+PZODzunLsjm8V07vVvotbGlMct18CS+vJG8JZ2rjWXG2s+hyBnar/6OiOEHI76pL2ieSOX4PXmLWF3M/LiJTsRRbWtWzT9DkgiL5im72z05nhzM2w41rTY1vbmBOqNs20OxcxH2zVt7Xn3jku/LI17crt2gV8bc9s1sIDrYecs2HKTz5kZzYGuiVw/X597FnaMKdTnzL4Qm/ZJPm9Up5i52jaHv87snAkhh6A+aa9o3sgleLp5I+QjIUauv1VHCLkQ6pP2iuaNXIKHzJvuHLjFa96BoHkjHw+7y+l3+ggh10Z90l7RvJFLsNu8EUIIITdDfdJe0byRS0DzRggh5F1Qn7RXNG/kEuw2b+/wsenq3/WRp3DW83BU3igPivM1RchLUZ+0VzRv5BI8ZN66i1Dn26b174UmPfT33nYevdx7Fs09fYS9/Sz+vHy+o8ZI12jxTcxH8x7NWXM6Km+UB8UPO5cv8+/8EUKGUZ+0VzRv5BK8xLzZflK2JmsrNt+Zubewt5+ld17CYWPIPT7N83RE3qM5a05H5Y3yoPgBY9ad7TOuCSEfHPVJe0XzRi7By82bYGNyLAtTVvkmX6lf3pRcxphj3d8HM2PY3+PKC2CuszcqL/mjPvXj4Gn82RyW36LzP2JbwDnAfEpeja397tmyf6nXmI5V+kzXMV1bzWF/7mLtnHP9fK14g303r6Zfkm0v5Lb2tWbm2vTF51CxYxJChlGftFc0b+QSXMK81cV7+uHS2UekxVYKZVGrC6v5QdwmXy+31uVcs3GYb7Ru5pp/hNX0KeGKNTvoOOpnsW39fOTA5kD5NAb7z2Yo07R1BqXklZ+/yHETa2jmW66VxOxx7heMXYpKHW8qzNfQYsfU+dtctTwwpsT8dcox9LrqvA7R+DXe9ovnMb/Wcu7ad/26VdbqCSEQ9Ul7RfNGLsFR5s3uakx/Q7XDvPk6KUdxLUfHFZ97WmCb3+da9JM2ae52B03alPPLqu3nRXfVAMEcYD6CzYHy1VhwPnYcrfd50Bg+ZnOgetTf9sly5yYYw/b2N9jX3KvnYEC5CSGrqE/aK5o3cgkusfOmMV8n5d6i2TtWNLaoM4s5rDPmTerNbokfZzJt0qcstot8iZUcC3Nh66N8UX/UXvBxVxYDzhvsB+OMtI/qSzGD2vSes4it7QkhGfVJe0XzRi7B683btJhOmzD2WJqufFylx8jwZEw+rUuPqzda14/PTB9bP3/UVZD6NE791qZrn4lypPj6DcrlPNpraa/Nsn97HSt+Xr5crtdihy1h51vj8DgYGyA53/0G+zX3yDlYXB5CyBjqk/aK5o1cgpeYNzEIVa5NUx+YMlfW2xXlP+yvfUUmd+0zLZLaJhuHxZyW4+oYuY+M05y7O9cgH84B5lOo54XmWMcP+qP25nwyvizUv/sK5mv79I792BL35HazGRLWxsxmx9dLx9Uxg+fdtrPlJp8zbJoDXRO5fr4+9yz05tmrM9g5iIYNHyGk+qS9onkjl+Dp5u2KrJ7LCsbwEEIIuS7qk/aK5o1cgofMm/7r3/3Tf94ZeA/zJrtF3P0ghJDroz5pr2jeyCXYbd4IIYSQm6E+aa9o3sgloHkjhBDyLqhP2iuaN3IJdpu3q3xsGn3k+ejfsT2bs+Z7VN4t1/lu154Q8jaoT9ormjdyCR4yb90FevTbpubvxfYs+lGf0Vzm24FZjRGVc0gxm6c3/0fYc+4jHJV3y3V+eEz7zdD226iEEPII6pP2iuaNXIKXmDfbT8qPGKBoHgMGYtoh9D9VYco5x8qN2x+dvzIw310clTfKg+IPjmm/AJKfo0PcMSGE0LyRD8LLzZugMVPX/JYViulHsrkPuNG3HUeOfb9ofgYZT34PTMxE8/tp0fxLMZPHtMZQdpOmcnweKYfPZcs5pz+PlsV1K/3vc/P1+Tpl7LiEEPIg6pP2iuaNXIJLmDddsLUuL/DzAt7shinycae4kNx2HiebF82RxwnMgBtjiZm//R23mtfixig0PyGi8/XY82jmXajlAVMjMX/dcszNo+YDO1zR+DXe9ovnAZ6TkXPwbRZlQgjZj/qkvaJ5I5fgKPNmd3ymXaoHzFsuSy63aGdToLs2SdLW58ttTC7fJ8uOFdDUy3zKucB+gcEwho03Xy+5h87BxoJrSwghO1CftFc0b+QSXGLnTWOLOmNG8sLvDBDqk9uV9jCnIrnB/ArNx49F8JZKQjiGXAMxHmksrc/z65yHzxXFu7jrNpJPyiPto/pSzKA2KDfEmbWhPoQQMob6pL2ieSOX4PXmbTIaeYNK69Lj2k3Elx+Pmnjz8Z/J75gMmjEKiekjWhnT9dGPG3vzB8gYvPl6yT1yDgl+YYEQchbqk/aK5o1cgpeYt7SAzztapk1jEOY2anxkUa8xMUTS1ufTOdn5RW1yVTIHtk4NjGkzUUyLmCHbvrN7l8lje4M49+fN113fjD2P9toRQsgjqE/aK5o3cgmebt4IIYSQF6E+aa9o3sgleMi86e6I+1hr3rmheSOEEHId1CftFc0buQS7zRshhBByM9Qn7RXNG7kENG+EEELeBfVJe/VU8yaDUVQkfa0IyLyhPhRFURT1jhJkfTzVvBEygr5WvHkjhBBCSIusj6eaN4oaleDNG0VRFEVRS51m3gjZipq3//gf/2M2cBRFURRFLfUf/sN/+Ppb/89vQx8m2mXeKGqvfvjDH379W3/rb339iZ/4CYqiKIqigGSd/E+/8wfQh4k2mzeKoiiKoijqdaJ5oyiKoiiKupG++dmf/VlYQVEURVEURV1PNG8URVEURVE30jc/93M/9/X3fu/3YCVFURRFURR1LX3zve997+t3330HKymKoiiKoqhr6Ztf+qVf+vqrv/qrsJKiKIqiKIq6lr75lV/5la/y0Wnvl3wpiqIoiqKoK+iPvv7/zfQXhhmIiNkAAAAASUVORK5CYII=;" vertex="1" parent="1">
          <mxGeometry x="-30" y="460" width="623" height="424" as="geometry" />
        </mxCell>
        <mxCell id="J0FPNzCPGo3RsI4ReDEO-2" value="" style="shape=image;verticalLabelPosition=bottom;labelBackgroundColor=default;verticalAlign=top;aspect=fixed;imageAspect=0;image=data:image/jpeg,iVBORw0KGgoAAAANSUhEUgAAAiAAAAIqCAYAAAAdEvF6AAAAAXNSR0IArs4c6QAAAARnQU1BAACxjwv8YQUAAAAJcEhZcwAADsMAAA7DAcdvqGQAAH0pSURBVHhe7Z29jiQ3sra/GziOjIUgCOsLOO448sZYQPZ4DQzGFuYOjtWWAN2C0Lashmw567Q/wF7AXkx9GfzJDAYjgmRmVlZW12s8mO4kGb9MRlRWdc3/++c//3kBAAAAADgSNCAAAAAAOBw0IAAAAAA4HDQgAAAAADgcNCAAAAAAOBw0IAAczvPl9du3y7e3l8uTOn4wz6+Xb2RP4O3y8qTMAQCAnUEDAu6Kp5e3VcXy+fXb5e3lSR3TSU0C5/VZmbeGPRuQp8vLm7Bzot/XaMvrszYGAADXAw0IuBuoifj27fXyPF+biu9rXxFf24AshfnshTo2ImM+Tjy9XN6KmAIAwDGgAQH3QSiU3hMP8SQgPa0on5jU4zZ1w1E2MUJf8TRDPpVYCnxhj2ZD8XbISEOhNSB0jWKWnrgERLMR9GkNCF8zcZa3iwAA7wY0IOAuCIXbKYLh6chc0OtivM8TkKUBenp5Zc1QqS/Y2mhw1DmhGVj7GQyrAaEGIstc5viNmZSV5DR8AgCAEVgDIl7xZKZDH2MYu/VY0YCEpyHLWFynvLLP8yfWNiDcDm89byhicfff1qgbEK2BGEFbH6/xpziVXu0JiHYtvVVzjdxiDGNHjOEJ3vnAExBwFxQNSCY1GUVDYhw625+AiKcAmk5W2MMTmXRd01s3IFLfKDs3IDLWqQHxmioAABgBT0Awdh9joVCKtyeKBsQvjtsbkImsL41xeXVDkannEvX8ulkYY+cGxLi2On8Yw9iNx/AE5HzgCQi4E2IxLQ6SuSFIY2oDEAmFd+gQigfZUrx5gRdj+WmIql9rDPSGJVxb/ZRB0xOvDTcgyb9Flu4DAABsAQ0IuCv4WxvlK5tYJPmYVozncadZiSivpNia2CzksdfLy1zYazuWdcpYMS7l9hR9XWZcF8fGGxBC+M/XAADADqABAQAAAMDhoAEBAAAAwOGgAQEAAADA4aABAQAAAMDhoAEBAAAAwOGgAQEAAADA4aABAQAAAMDhVA1I8T0L3V/cVH5nAP/egWtQfFeC+H4Cb+xY6u9g2I8U76Ev1mqxQWb4LokU89X/mRoAAIBHQm1A1n/j4TWLbk31pUqdY2sYj8ujNCBx3VE5BwAA8D5AA9LJuRqQE4H/pAwAAMAKbt+AFI/vue70ijyjvDIfb0CifbNMOa7YEuSwazPN5ibHgvvBC7WwpfBPjLF1hT2aDWY8bWyZZAe9pWL5MNH7Vd67Pq0BAABw79y2AQnFS/vMQJSz2JEKsii4ow0I+bZcEzpMWyJrn4BwmVz/08sr01Xa4vmVUec0fGhRy5Q+LHaGubzByIT1IrZZTsMnAAAAj8NYA5L/10/z1WwsNH0NiCxSDO1VtfKo3yvU9Ri9IldevU++uLYk1jYgRSw0vxLc3ljc9XmZ2r+2Dy0smdyHao7mU2f+AAAAPC43bEDiI3p1bmoMCh1bG5BsuyQ0II4tiV0aEO6DZg+zNzwtSdc1vbXvbR9a7NqAdOQPAADA43LDt2CcuZ2vqscbEKsAtu3e7QkIa3i4PNuXei7R0yyM0iOzmtOZK/UaAACAh+WmnwEJxUwtSrLoRrntIuyNRRnufKdAhnHzyY+GjAX3QTytyE9DVNv6fW/50MKK2XAD0pk/AAAAj8ttP4Q6EYum9nZDLGLz2Fz0og6+Zhn3xvS13FfbFmVtUag1RnS9Xl7mwq740OW7Jrcnl57MODbegBBW/gAAAIATNCAAAAAAeDzQgAAAAADgcNQGZH5s3v2Zh/JxOxoQAAAAAHhUDQgAAAAAwLVBAwIAAACAw0EDAgAAAIDDQQMCAAAAgMPRG5D5a8LZf2wWvu8h/h6/a2L9F15dn/Sh2KEvDnNY6/tdxQzcnN332QP8VRruzffLO8yt91em3X+B+o7iojQg8dCqAnEW44Mdy1/cLHB77qABEf8XTFkkYg5m3/iXeLnrxJxu/219xV9FTYwVMysP4kvKhvaSLvM6drbGDNwcOb7vvs+u14B0H5bX5hr35g04Op6nyZ/HO8ktx4t7d06uEpeNNcdDq0fpmtKA0AEZjSyuhwXJYHJk5EC+CkajdA3W+m6uI9tZjNnGoN9pIy4bIBas6Ke/LpKKzmu/nbY+MTf4o+wNjWBb+obXwo5kH9vEpX4HU6ZgFzsbYyZejhq+X2WfvfMGZPeY3Yaj43ma/Hm8k9xyvLh35+QKcSHd62uORzqDinq0yOxvQFyikrl7yk5mgtHL+BJksa4yMAYijguZaa1MWOzs0hpe1MiG15ekb5L9TMmYfi50pnVybZNk59AaTlwfCkXYJGX8g0/qJmPr0rV5bu/GHNbXszemeWl9LauWEeY0Y+fJlGh20jWZo4adTX2aTEmcE3NEP6/xfS1xT78+JzsD/D7i1ycKH8X9kNYFe/maTPChdd8KmVnfqe5N6XdkucdsW3IB4TFa1umx9uPpyYx2VPf+bI/0oyd/ip2BuGfX+OfbSWPeftmZ0X02X2frZzt76pgy5q1jY36sWwzu+Y01x9M3yzHq0S4NyLKhlPGQNF3e08v06nK+HpMRE5ATk9fxMW1+vrZQ2ZQ2DwUudHthoy++hmvzfF92zWDCK1hSZaLmTa/dmGwd/c43kpHwihF9vTIZ2kZe4j/9Hmweubl0mQWqnX6OPJn2WE/eyxxt9X0M7z6SezzNTb5U948gH5DldU8fyTTu97TnKA6nuzfJNrbWsyXavoznfVPbHH+XcjWfWjL53uE5W5c/4Z/Yn+v88+xM8+b9IvTvTWOf2fUor13s5HjrpD/0e/eYEmvzzCsY3PPyvExxUmuAOM/4tUpfRz2qG5CwSFNsE4KjrhFJbCA3pnVzRXzZ1XwWgCXRcfPFf4X9RsCuQdhsWVfWm25+eZOY69Lvczx67W/qi3GOG1JuvDbmjUN6g0z9pvbQZV7JzsZYC5mjwAbfx3Duo2CD2PPs3g/z5Dij2GszPfetMsb26iL3DPem1O3bUuU6xbMVa/pdj6cjsxHrdfkj/7jMqCPPW+Ofb2c9dtXcilzxfabdh9JOLT8a8zqRY2LW642ln7VYW/ncRI5L0EHnEunR41LZ5cD9sfLKGpC4+XqFS4JhwXieKLmhBbPDDGNj8psr4m+Kar6z+VQ7iJWxGCHYyTcW2Rn0s2vK5lPXcXvl75WPaW2nvoiIuSWTEewUcSw2cdJv5VFDk1kydmAQnsy2Pp0qRxNbfR/DuY/k/iBE3vV7ehmr7W7ct9V+mRC2nOneJFuKs6thix6Tic5Ya2tNma1YT9DabKOUocuNMst8LUVojX++nfVYvCe0s2cHnH0WfNTyG+xcWcdEjolZrzcmfr46IeZkN7NHsU87z0zkntD2yMQuT0BKYrJi8JQNps6L17yNKW+uPMdKUjXf2XzbfV5HTKjoMoMt4ppInraOfCpuAIZ54xAd+jh1HnzCfC7L0jcQ/0qmwmY7O8cswpre3F5t7zn3kabXtKW+V/UD0rtvnfud7bez3JvBJrl/GraYRaMj1tZaU2bXGZnpzV+8zs+OnjWef76d9VhYN3ivdcNkL76kfebtT83OGWedsl9mvd6Y+PnqWOcSy0PwSc5xIPv5PuLkOJLMnT6EyonJysGLhovNGYiJm5MagjAZaCR82Qz5WqlHUs13N1+UVcofIfoyst5OaLJlTr4Wz478dN/Ivr4SkbMOgr3cjpRnLiNs1i5bI5XMCs1OP0eeTHtMl2nmaKvv+R7pjlXMpX4fRduXPHt5r8f0mLT1zWP8fj/ZvRlt084s35bFdjnWjrW1x2yZQgbF0PSzU5/pd2Sdf56dcWzZL1JOg9H7wd1nUbe6P6ffQ7yG61g5FmVwvdaYF+seomxrn9bEPCxxLHMWbfNqToc+UY+yzB0akGQ8GZARhuTgZkrH8vX0545hrdyYaW4htwwSv8Z1BWids/mir/Xa/g0wmvA0XyI2QL6+2NFaxxAJ97H01THhObEx8pDtyYeQvO5iy+yzU8vRmMw8ttiqyWzkaJXvmWyTXSRK4nz7PhK2ztcV36u9LeaEcV+feb+f6t5UfC/W27b4RcOKdUaLZ0NmLnbEFL/nOdaKDwP6inUTm/0bsNOWr5HXd94PjX1m16O4vhxfbHXX8ft9ukZzZx+dMT/WLUb3PFHmYtEt8popzq0OfSz2XOYVnoAAAK5FKBDFzQ/AToRGQRTzcO1a9SAWvb4XNTq4H+4bpQHZvikAADuTXy3hsAXXIuyxsgGJr+57n7iNsqHW4H54FygNyMT8yAxPQgAA4FEITxTS4/HItZoPAi92Hx29AQEAAAAAuCJoQAAAAABwOGhAAAAAAHA4aEAAAAAAcDinakC2/e3zewEfzDIJn3znf7M/8Pf/7rr0d+m7fqJ+Z5lX8x2AO2T3+yGeu2epP9G29EHgoe/zuBbXOc/6GhD+RTKcnf8EqmhAhM7+ghw30mwjT95KmfKT4fW65YtVRuTqSd2hAcl+7pCf4kZIbLKNcPNQxrI4WK5WhFfcXCTTnb/uhjWb8CN9b93vq+9NYoU+F+d+b7IuR+a6ZlxW6OuJdZ5TyE26Zjr3S6ZD5lix9nwv5QYfW3ti9/vhXA1IJtg472nbxuu/eF+xdz1SHlY/AQlFeefObAkiBTpukjDGNo1cIyntikHbKrMg3BhsXbpRxg7hiaA/fWtekdS4yYblzaT1r5P8HTYL3QD7bmwvD7XvRT5DrNOBQet6/Vu7zmMvOQLzILmG7/S7ugdrljxsuI9W6dPHM/b9Xs8tGLClwFzXiMsqfT2xTvdMcb837qMmtswltjHWXeeU5/vA+Vn4sPv9IP07B2UDkn6vfKVcdN6DZyHlQWlAUqfjblbpcEze3KVWay2ZYt2EvgG0za7IDE6VidATRnTKrKA5iw66KfybR5M5XUs21falm/85rQukG2bGtnOWp92U4SDIMmWsdZkkz70pV8gsiXNiDOlnJX/u+m0E+dn+Qg/lgWxJPgRYHpxDz5ZJyD0fZRZrON2+98SaM80396Ckzks51roHiL30MYbud06PLdGvMp6jPrB93b3Og8uMzPKK/Ujz1t9Hqsxwn5fnUJ9M3/f2+ZmpfdqXeF8u51eM9eKzuG+Z3+QDrQv+pfHoU+MMcWRmqhgre15rpDSZtp3KOmYnn1/byH2bKOzwfI+sakBkUIrONDnSU4jKdUuA+JxIXF9uVEWmLArhppnmKI53y5QUOmj+FOSXrEfT5csMsSxuyrwRlk0m42TK5JtTjYXYuAW6TLJPz8nESpklcU7OQ/A1xzD4I3N0HeSebuZBxlehlqlf49j3QIueWOvUe1AZN+WW+ethmz6GusfZ/unAtsWPZ8sHKy7tdR5CpnO/r76PLJnafteuOdS+kz+TLvf8jHTvidXwuhXjzO/D8gwua1yM9TKe/azPEGWdITNT+13P42fGGjspHz3xbdsSf49z0s+G75kVb8GkTZMO5fi72DQ9GzNs9HIdDyQnBK5no2e96YaLm1naG+mWGcjBjJQHwHSNJWVMbrkJ4rWoqzgsyC/jxuQU8StyoCe/h2Bf8ptv3i0yOWq8gr+kr87btbBurioP2dYivjraTR3jaeeyyOFB1HuQo98/mdH9TmzRV5Bz0HG/W/i22LTWWXFZq4+QMou9ou3HFfeRLZPiyu+H+PuIL5Xv3efnWE7Xkc+zl+BXeQ+SfnHPsthUNqfapp0hIQbBX19mPV9cm+fx2Kyzk+YHmXKtoLIl7C+xpsv35dpwA1I6PzHf/AIRyArmfL5WbP5ET2BmQkBIP5uv6BmSWcEKryJbveZQxVMrfD0y5eYtfqeNKWSuItq23EDbZGp5KG6SlE+5J65BsKW4OZQ88BtOxluhlhkJPoZ9Wvum3QPXpt6DA2MDez2zVl9F2h+t+91jSB9jbVw26eMy5f4Tv6+6jxoys5w55vS7sr8tKt87z8+1MRsjnW3BN9HsBJvyGCPZZN+z9RkSfKGYNWRW89m1uDbZyHO02s6Idy4RlS1yfxApf67vbP5gA6IUnaSw94afUdbJAAWDRzpfnph8TQRpWKbCEkjefSYG4xFkFUk0Cp9MtIBvHokqcyWL79tkqnmw8rdmfw2y+JWvNfLQkZNapiTeT3zPtw6Ja1DvwYzdZKr562SNPpWO+72FbYuPta4VlzX6NJnu/b7yPvJkWntgZK/Wvvecn4N7YjXxfid/YryZDY0z3b5n6zMkyKYzoSEzM88vri+2FrpX2ympzyWiskXbU+ma6zubP/QZkCCgunmiIm3+giaz3FhBNnM6/m7fyLPMwp5ky3xtSRSNd8vs8CXbHW5aNl/+3pJZx1QmrvQh0mGnOIij796G75AZNrjM2bhMMw9CPhHiWe05g7S+ez4j2FTYKfMQfZnz0FHoapmSOrdhzQr7u/JnYOl0r3v3USMPo/oCqswYv+Wacq+stGWO58C6ZlwmTH2GnT0yA3w/JlnufdSIS8DZ46ofK2LdOj/NeLXo8a+g3DtlvNI+M+4tmluez5m4juch+BPk+DIzy3zl+tvUABZ7Y62dkjIWmdoWcSYW6zzfl2v9DYiyqReS47QuURpvyAzdUlozjZGBcV2aLyk2U9Ypb87SlsWOHpmanbVvZQzEuPSxU2ZgskUbK2NpyRQoh0fYAKbcHjvrg3BcZromybbyPcGvd5Htbb+yiBh5CPY28iDtJIz8BQyZdQ7FnGrcomNPFBh25nib93sjf2xtmbu1+hJmQSnlVvfKGluKOcoBr6zz4tKlT7WzI9YZeb+37iMznoxCpvBB22erYu3ITfLMPeGS5Y6dBcv+yetz/ms/8tx1DcgyXsusrweU2NT5W28nX+PZWI6LPSrW2b5HVnwI9TyUXSoAe+6J+gYCjwXOl/sG+Ts/99mA5O4emwtkdt8TaEAeFpwv9w3ydzfc9RMQAK4HGhAAALgmaEAAAAAAcDhoQAAAAABwOGhAAAAAAHA4aEAAAAAAcDhoQMA7Iv1NOj79DgAApwcNCLgfii9G0jhLAyK+vKewp/5yqb6/tFm7DgAAzgkaEHA/NBuQMxCbj+UbB1MzEr4BUI71snYdAACcFzQg4H5wGpDiK+GLr/ul4k1fp8yfIOSvZ46FnT9JmL8uOH3VMS/64ZsVW1/trNkYZL2mf+uvs2/Ssy5/+VKiaoDy2GybFxcAALg+aEDA/dDxBKT+/wZyAS7/T4dYoJ0GhH4PRT2tCz+3C7T2/x3kt09qW3pprON2irGnl1d2vfZdj8uyHgAArgVrQOr3mPMrJoxh7NZjoenY0IDoTYY3xn9/qeZZ0FOSuoiXeoLM5NtIwdfXjTUOfb6fJ+8Yw9heY965AW4DnoCA++EGDUieU16zqdcTdCgqTyjy/2jZKXumWBcPXLM5ynM5YV2P7wAAcD3wBARjdzF2qycg8YnGc5jX9ZRBszE0AfrbN0FfwyeNvE7zYSHGk9vd5/uxucUYxo4YG73HwPXBExBwP1ypAZkLNMmnwyqvD7+nxqHng6CBeAD2vUUSx0p7eyjXBX/UBifaMvtePDnx4rJcAwCAa4EGBNwPuUHghFc9qSDLsZ5Cy9+imGQ957Gki6+LfwXT34RkO6oGh9NT8DvWxSZkGc86y+uvl5fZdzQgAIDbggYEAAAAAIeDBgQAAAAAh4MGBAAAAACHgwYEAAAAAIeDBgQAAAAAh4MGBAAAAACHgwYEAAAAAIdTNSDxuw4S3d8eV37vAf9ugXXU31GwnShT/0KoHpKPw9+ot3bdDSi+b4J/38W9+HBHsQYAgAdHbUDWF+m9GofHaEC2xXpvop16zM9T2P2YoQEBAIB7AQ3IDTlVA+L8fyVn4lxNGwAAgLXcvgERXzMddWc56RVtgBfHOD6vk18f7chcfMuy20W3+DrrQhfJpLcqdDutdfJrs7U5Lqp/NMbtmJifBPh2LjLrWNi+E0Jf4G26nvMn5KT1eY9x2ctckdvkQytmQ3aOxAUAAMBVuG0DEoqe9n9r5CKUx+Lv2S6ycSky5VhLZpwXC86on7yIRnw77XWRVbHu8m/5Peq17WwV9ozmQ5GH9H+qxNxH+V4DwnWEsbnReGW+SZ/aMavtlDJSLMKc9HMjfwAAAPZnrAHJ/3GX+R57PMD7GhDvsK/lLIWFmgfl1ftkU4/Mt5eXVc0HYRU3q9B614jxBsTxT3uCkd5W6bJTW8+ofYhN3CKT2+brCw0I30PO2z9S73ADsjUuAAAArsINGxBZwDhOYcg2SEID0pYZ52tPENrUxamvgFlFbbwBcfxLTViRl6s2ICme+VrQVT5JsPR17TEO07uqAdkSFwAAAFfhhm/BeHOdwpCKh14o2zLJtyDLKbYWdXFy7Jzn2EVtPNaOf1oDka512TncgET7eaOw+OLrs/2ODRYfk3pXNSBb4gIAAOAq3PQzIOGwV4ueVxjimFUkWjKzb6F4mk9ydOri1FfAtGvz9TU2qP7J4s397bBztAHpaARnW4LsJWetBmS2Mz8NYXpbMavs3BoXAAAAV+G2H0KdCAc+FZlEX2GI4/W6tsxlXpbRejum1hUItnh2eusM2Z2FT/ePxmKxreV5dqZragPi+xCaODE228LfSpkahmemz9tjpW+vlxdppxqzVqw3xAUAAMBVuHkDAu4U7QlIuLbu8zUAAAAeCzQgYB3KE5P49MJ+GwcAAADIqA3I/Ki6+/MJ5SNuNCCPQf0WDJoPAAAAfVQNCAAAAADAtUEDAgAAAIDDQQMCAAAAgMNBAwIAAACAwxlqQH7/9PXy36+JLx8vX5Q5Gn/nNRN/f9DntCDd//n4kzp2DY7W995BPM+Blodwfw7cz39+QS4BANsZbkC2HDx0cK1qQH76ePnP10+X39m1qxY0Rd81uJeivIed9+Lrrbl2nDT5aEAAALfgLhqQLx+/VHqveVBr+q7BvRTlPey8F19vzbXjtId8NCAAgD24iwbk769fLn/+FH+m5mB+G4jz6cPlnx8+Tf9+DHr+S2s+0JOM6ef06u7PLyTnA3tLSH/KwfW1aMnkbz9lO1wf2NqKhn80R9NH12Xsgw1Jn+VDj53Rlvp6NTbRu3dsH/ryp1HaUq6zfGjpK9YxO/N9wuPHY6+t2xprj9L3JQ+FTkVeuW7xna7zXMb49OcCAACI0zcgvFByVFuoQE+HIemg8XgoUgGhQpIP1PhzliFlW/ospEx+OMuDOsxlsofj2eGfpY9+thsQ2wfCslPGj6+TY72+St3Btk47Lbycej5IfXzul4+f5utyXZhHRXmeO+mfGw17XV6r+eTZ6SHXafK1+Hgx47qp+eixAwAAJKdvQKw1qi1UoNNBz8d5gS5ksfn52qiNcv58cIdmQbwqFJ8tGY6n419Ln2lnY4yw7Pxb6kv2rf7MzgYfPMI8KTdh+UAxrvYCG5uvJbgt5Gsxz/lM0dZYa7bMdOZBi6MXM4rLfz5+nGzqyCkAABiUDUg4sNKrt0D78Ao01mWqA72Fc8iqtrD5fNxtQLitPYe6wCyKmixREMx4Wjj+tfSZdjbGCNXOKueJyQbppylDssGHFqQ/2zjb4fhANrj7RVubbHF9ddYRo7EuYiVhscvXNPlWHNWYTVBc4vXl6RAAAIxy6icgnj51zCnQPU9A1vhnFkVerDLi2rA+x7+WPtPOxhih2qkUN2+sy9cNPowwv3L3fJjw9ot89c9t8Xz11hHDsfbY2IBwuN0UF/o5rFtjFwAATJy3AWkcuuHwk68AWYHgtloNSFEMVh7yXlGUxSYf3MVc6YNHwz9PX6E7FPXpFWyy0/Nh/l2xk9ZZhYtsyTLDemGbRcsHz85epExLhtTHbeP+xb2zyPHuE28dsSbWHj156ImjjFn+mXwd2sMAAJA4bQPSeyjGR8HpcO5oQOb54iDeUsy4T1IOFYDCxnQ9U/kgxgsa/sWfDXm52BGTjN+ZnS0f8hxNrhnT3OSk+SSzd+9YPvTYqSFtdH2byHaavk0E3fPYp8ufzBbvPvHWZQq9wv9lra2jwMlDFZc0Rx0TdnDdce6yBwEAoIfTNiC8qO6Fp/8a+sB9M7JfAQAAjHHqz4DsDQoKGAH7BQAArsdwAzI/kh1435c/UkcDAu4F7BcAALgeQw0IAAAAAMAeoAEBAAAAwOGgAQEAAADA4aABAQAAAMDh3PWHUIPcATs8iu9nEN/LABa2/iWUxjVkPjK3jOetPri751nQw9H6AHiPDDcgZ/oz3GscAr1fbvWooAFZOKvdR9hl6bhWA9Lyae+z4Gh9ADwid92AXAM0ID7XKG7XkHkEZ7X7CLssHbdqQPbmXvckAPfErg0IHT6t8ZHDiebPb4uw/6fFe7vkzy/0jaYf4isUsY5YrmfKb0C1GpDCls4GRforZVv+VWNsTc4Bj0EzpvR13J8+JpmTvx/S17KzV3BFXMQru9LOMseWnS08md22CH2lzL7/12dovyRbiv3H6fC/pa/bP9d3/z7kFOtYrOm6tndbvsd14/5ZcWnpK8ZFTAL8q+gnzL3bmduWPm2/0PVW3gF4RE7bgIQbXTtQGNqceKjQzb78nm0i++f56f9GkfZoMot1Ey0/M9JfLtvzz9MXxugA43JEka5IhzDZEtfT4UeHYYyT9Id+z/KlLfS7Gs+J3rh4Mkds4XO9eHoE+cZ+8WwhuN29ePo8/0bGeu368vHTbAfBZdLP1t4lLB20bo1/3jqi5ZOa/7DvF5kcz3dijT4pI/iU5rT8A+AROXcD0niVYB0C1sFJrz74mGavJvNvaQcdbK2iP+HZ4vnn6QuHONfd87/4ivXZZ2pA4iEt1ieZmuxyvW3nfE3iyXRsoWuePi+eHmaOGrbQ7637QcPfn7Z/1lgrRyNwWzw7CUvHWv/W6svI+QTJ7I3DZn2N/dLyD4BHpGxAwg1DnXqmfbCFG6lYk6lfecibsAXpy/K0w8A6dKwbncbm+cHX2sZKZhWTRKvQTrQOHdW/hr7WwajCDnq+fm5ApC/p4Mz/qntgbVw8mU1bfH1qPBuYOXJsybavyYWpz/GvPda+T1U0uWl/9uxdTcca/yjGa/Vl5HxCvuAocHwnhvU19kvLPwAekVN/BoRDh4mUrd3E3o1O9vMDR7O1kqkc8L2MHDqzfw19rRyotBoQqS9d02yZ16+Niydz0BYPbb9omDlybMnX1uTC1Of5NzjWa5eMEd+frb1r6Vjl38RafRk5n5AyOZ7vxLC+xn5p+QfAI3I3DYgmu+fQmed0FjBL5prDorA5HEa2HD7X09dbXApIt9GA0BMgeRhzW2gsxzPEhs1dGxdPpmfLiD6+zoPmWYXBs2WeK1/1NvD0ef55Y148Pfi6eH8sOgpflb1r+b7FP2vd/LsTazl/vmbc857vxBp9rb3r+QfAI3LaBoTmhkMvw27WaoyNezc62S/X8QNCjnk6PT9n8sFGTIfZ78wWzz9tPOu7RgMSf2b6uC25+KTrFE+uf1VcGjJNWyYsfa14WtA6rzB4thCF3g6dLX2Wf+5YI54WQfcs79PlT26Ls3czmu9r/Wuty3M0fVweHyNKHxd9ru+JNfqs/dLjHwCPxq4NSAt5Ex6K9gQkXKs/BwIAAACA6/I4DUh4lVg2IPFVUPttGQAAAADsy3ADMj9edN4flfDHkjdrQCYK+wNoPgAAAIBbMNSAAAAAAADsARoQAAAAABwOGhAAAAAAHA4aEAAAAAAcTtWAPL9+u3z7lnh7uTyJcZ3ny2teM/H6rM0Z4eny8raHHE6U+fbypIydkRTT7hyclOfXZT99e7u8POWxe/HvneQBAABOhtqArC/SezUOaEDeR+GLPuh5PI9//p5HAwIAANcADQi4Hk8vl7dvr5dnbexEbNvzAAAA1nD7BqR4RJ91Zznp1WeAF7I4Pq97fV7kNWQuvmXZPQVS6Ou0Jcfy6eVtHg+xCfYJvewan1/5Ns9N4xOLT424eJgyeQ4m5icBpIveUrFylGXW8fX9E/oCb9P16BvfW0FOWm/GOswVcUk+FHZwkswhO0fiAgAA4MYNSChQ/HMBmVww8lj8PdtFNi4FoRxryYzzYnHo9ZMXOolnSxijAsQL2lSosn6rmHrXbP8acfHoitnye9SRflZyVBRuTod/hQ/hCUqOU5TvNSBcRxibG41X5pv0Ka714lTbKWWkWIQ56Wdj7wIAAIiMNSCpICyv9iTxsO1rQLyDuZazFAEq3sor7VDY2zLfXl6Gmg8i6FZfxdq2UHxCUeSxYm9JlEWNbKsbgHbh4/i2lHM5jszQmAiZyYe8zm2itPWM2j/ZmHHbfH1erPP8jNQ73IBsjQsAAIBbNiD1U4AF5xDPNkgmm3pkxvn6EwSPUOCSrjk+ji25AfFjmYoY/azEtC5cjn8NW6r5M45MrYFJdncV2uEGJOUoXwu6yicJlr6ufcthelc1IFviAgAA4JZvwXhznUM8HfR6UWvLJN+CLKcw+sSCHWLk2tKK5WIr2aPNqwuX41/DFhtHptZApGvausre4QYkxow3CktcfH12rFm+0jWpd1UDsiUuAAAAbvsZkHAwqwXKO8TjmHWgt2Rm30Khaz4d0OByfFt6Ctvby/MkQy/SWuFq+bem0NkyZfGufd+1AeloLmdbguzF31YDMtsZdJRxCnY4e6Gyc2tcAAAA3PhDqBPhcKaCkOg7xON4va4tc5mXZbTejql1lcXEtqUdy1jIWvICbI7un77W179gy0w2ZkQOxhsQ37/QGIqx2ZbcPBBTw/DM9HmxLn17vbxIO6VNYayVhw1xAQAAcPsGBIAZ7QlIuDb+mR0AAADnBg0IOA/KE5P49MJ+GwcAAMB9ojYg82Pl7s9IlI+j0YCAtdRvwaD5AACA90jVgAAAAAAAXBs0IAAAAAA4HDQgAAAAADgcNCAAAAAAOJyhBuSHP/7v8j//Tvz1izqn5ufLP/KaiX/8qs25B5If3X7XUPy+++1/1bFj2O7D7TmHDz/+9nW5F/74uXtshNvvFwAAuB7DDciWA/H7v/ZsQLxCdI0ihQZkT9bHYn8ftuQlNBtGk+GN9YAGBADwnrnPBuTXz9Ory8+X7+mAl4XIG7sxKCgLZ4oFGhAAADieXRsQajBa410NyL9+uXw3vcrlskg3NRbhFXBqLMIBXzQZ3piN5Ve2N8iiV92EKCjf//X18v2/0qvyANlYypjXTix6+JqJZGvLlvzzIrPUZ+H5QKyR6fuu+1fYweko1PvlIY712FKsU/ZTkGHYbo0VMis/2NiEdz8BAMA9c84GhAhPMqio5J/rohgOeKPJ8MYkXqHg9mrzYsFIdqbfcwxC08Tm8/jJWAU509yWLdZ4L9r6tTI93y3/8u+tveQxmoeWf5YtP/72eZZHSJ/iHFu2Nib3BJfp7RcAAHhvnLcBmYgH+C/mujC+QwMSGpx08C8+0qvppaARWkGRts1zwlOcsmmaZWsNVZ7fsCXIV5qxXjQf1so0fff8S79vKa6aD6Yt+WfHv15bNL3aNXuM8ijsoFjRPvX2C7sGAADvhbIBSW99LI+A2wdiPNz5mkxZvInRBoSgNe4BP9KAWP7R9Wnuj1Qg/vg8QfrqYqEVm9UNiGrbNL/DFpKTfRgtUJoPxBqZbgNi+Zd+31Jch/KQfvf8M20JNi/rAkKvFU91TJNHUKxEfIgtMQIAgLNz6icgUd/PptxwwMtC1zFWEwv8D1PhJD0/TIX/h9QI8HlasTELn1dQtCcE87U+WyI014+5RPOhpF+m6bvrX/x9S3EdygObE6n9022p52kyvXhWY8qe8Ma2xAgAAM7OyT8Dkg7kcDjXT1TCAb9jA/J9es+f1tLTh55iYxe+WMDyWLg+F7S6uC2x67OlXlePaWg+SHpltnzX/WNzu/NTovlg27Jcy/TZUuYv7sH/q2R6eiw79fnefpFzAQDg/jlnAxKaj3Iu6c5v64RDnIoBJxUQb8wjrMvzUrHJvqgyUxGRPhVFJ/mR59PYEp9YcKQ8YsgWtZjVtHzQrrdwfXf8yxR6O3S2fLBs6fFPsyU3ARFqCh2ZRMeYNj7vCXe/AADA+2LXBqQFHbxdDQgAAAAA3jVoQAAAAABwOMMNyPyIuONtjUj5KB4NCAAAAACGGhAAAAAAgD1AAwIAAACAw0EDAgAAAIDDQQMCAAAAgMOpGpDn12+Xb98Sby+XJzGu83x5zWsmXp+1OSM8XV7e9pDDiTLfXp6UsffASf17fl3207e3y8tTHkt7pnuP3Yp7sRMAAO4LtQFZX8T2ahzeTwOyLZ4jnLEBicVbz+N5CrufIzQgAABwDdCAXJmHbkCeXi5v314vz9rYiTguRwAAADK3b0CKR/RZd5aTXn0GeCGL4/O61+dFXkPm4luW3SqQtI7eOhiz5enlbbnGmcb1GGef6Weua4K9+s5rufy4Zq1/CTVmNGbZ0opLllnrL2Ijcyf1Bd6m6zw+TE5ab8eFEDlKPng5muWLawsb4gIAAODGDUgoUPxzAZlcMPJY/D3bRTYuBaEca8mM82Jx6PNzgy1pXOrhhXMhrq1lJP1pftBHRS39HmRNxa9cN+LfRFfMlt+j7vSzEpdWYc9ocSjiGZ6glA2W14BwHTkusdF4Zb5Jn/QccWo7pYwUizAn/WzsFwAAAJGxBiQVhOXVniQetn0NiHcw13KWIkDFVXmlXRVhNh7IYy9jxXmlLTk+ajxpTipoyzjJml7ph2ZAyGRvZYRCy+Ofxrb6p853bPHjkq5p6xl1YY+N0yKT2+brs+Ki6ZZ63T0/0eXXSFwAAADcsgGRxYbjHOLZBkloQNoy43zt1b7FOlvcBoTWhTmTva+vE1ScyPapgFFxk/FNxS03IHp+1vrnxMyxxY1LnjvcgCQf8rWgq3ySYOnr2rccpndVA7IlLgAAAG75Fow31znEWTEu1xBtmeRbkOUUxpK1tkT0eMZm43kqZDT2PDUhzyRrKmpq0WbXWg3IHv7NOLa4cRFzLTuq+RPkH28UFl99fXZcYoPFx6Te1p7v8mskLgAAAG77GZBwMKsFyjvE45h1oLdkZt9CoZOvYlXW20KEuZWe2IC8pM8m0Bx6EhLlyIJZ263nZ61/Xsw8W7y4pGujDUhHcznbEmQvsbfjEn2Y7Qw6ypzpOVqo7NwaFwAAADf+EOpEOJypICT6DvE4Xq9ry1zmZRmttyu22VKNh3XpWi56qSgu62KBK9dEeb0NyKK37+0YPWY0ZtkS5buFVm1ARDyE3NA4ibHZltw8EFPsnpk+b9+WvlHjJ+yUNoUx385NcQEAAHD7BgSAGe0JSLg28pkWAAAA9wAaEHAelCcm8emF/TYOAACA+0RtQObHyp2fIZCPo9GAgLXUb8Gg+QAAgPdI1YAAAAAAAFwbNCAAAAAAOBw0IAAAAAA4HDQgAAAAADicoQbkhz/+7/I//0789Ys6p+bnyz/ymol//KrNcfj186Lz318v3/8rjyW5wo4ff/u6zP/j52JsLygO3/32v+rYNeD6vv9rRQxPwNEx2w99nwEAANjGcAOypYiMF894+Otr/MIQGpFrNCD/+uXy3b8/62MKmwuv0HetBuTaDcKjNSD36y8AABzDuRuQwWLPuVYDQnJHYrA1ZlIfGpD7AA0IAAD47NqAUHFsjQ8Vz/D2S92A9LzNYjUgZMP6t2jo1TB/GyiiySxs5HCdxdtLWuxqfTGG6VV5gMeHX58Qr9oLO9O6Hju1dT2U60r/tJjF6+Sv4p+2F4z9oaHqCw1uaRftcTU2PG+Jo+MJAADviVM2IF3FO89TCoM1FoqLKASevZI1Ms2YheJZNzMcTV8sXss6rk/qDnPTei9WhGVna52FjAuX78XM9i82JXz/SDkWnr4iD0ZDo8Xg6HgCAMB74y6fgGS8w7weowImZJH8gff2a/vbMq2YtWJFaPGS12Y/tVixt7DCPCeWbsF01qkob50t8v2Ymf6Jn6Mcv4GLtHMU5f6ixnsZL/dZKy67xhMAAN4hZQOSHkkvTx2sIrJciwcqX5Opi4N1wJtoRZWhFQZzrPIt0duAiKIV6JCpFyIqio1YaPom3AZEtW+JH9mSbZQ2WQUzj1nrVLwGpBEzrwEp5JK/Ru4LOnJEkN7uvZQ4LJ4AAPAOeZwnIEpRHEH1vUOmFbNWLHrXFQ2ItMWMX2yAuPxWbiP1OhUlLrP8RsxM/8Q4yevaS905+jnI1nzz9lnkyvEEAIB3yAO9BRP1+4XEwCliLZnBDuVJRrhu+dbQpxfouph5+ZBjlp2SSmawdYpBsTbaku2Mvi7rvJjZ/qVrtCf++nr5rsPWjKev2GPBl/rJXWWDwm7xBACAB+EuG5BQUKjocVKB8Ma08Z7Dv1WAWjKLcSYnF2a5ztNHsuwCHQu/pquKiyJfs7O5Tm1AJkLuljVkJ4+LlJvHfP+IdU8NVH3JRq6P9nh++7DyneiNi5wzsA4AAB6BXRuQFnT4DjUgp4AKXs+HHffiaH33BuIDAADvATQg4K4ITyjw1AAAAO6e4QZkfnTc/R58+bYAGhCwhnnvDXz2AwAAwHkZakAAAAAAAPYADQgAAAAADgcNCAAAAAAOBw0IAAAAAA7n/B9C5d8nUfz5ZZIr7Ci+W+NKfy2x9a+BRuH67vUviY6O2e3R9+c2riHT42h9AIBHYrgBOfbPcOMBqK/xD0fvy7w24XxLqcbmwiv0XasBuXaDgAZkD+6/AaH9a79ASPoS1T63vvSuNQYAOCXnbkAGiz3nWg2I/EbPFltjJvWhAQH3Cu2B5Z6Mzca8J1ID4e3tsPf/+Kw2Gd4YAOCc7NqA0CHQGh8qnsZXsfe8zWI1IGRDa60NHZr1t3BqMgsbOVxn8faSFrtaX4whf6XI41O+gpSHcWFnWtdjp7auh3Jd6Z8Ws3id/FX80/aCsT8kpsx5PF+fYLbk/c5jFPYv6U3/fX94W/DX8tV3a3968bTGfJl23lu+W2zxQSU0GOVeDjqSrRRr72zIc3+k2It97Y0BAM7LKRuQ4vDjiIMwzFMOR2usfAXWtleyRqYZs1A8ywNZoumLB/+yjuuTusPctN6LFWHZ2VpnIePC5Xsxs/2LRZTvHynHQsrk6zxbwhjbdyEWVOBC7qItcc7nyw9Ks6jFzotnT6y1Odzm/HueI32Xc1uM+mAim4MUw9i8pNj9lq/l62kub16kHG8MAHBq7vIJSGbsMKdDTsgaPLBq+9syrZj1FAItXvLa7KcWK/YWVpjnxNKys7VOhenNLPL9mJn+iZ/nosUKvkUVx1mfb0toLvj+yH6JOYtfpT2lveyaEc+eWFcyG3n34tnDqA8mKWY/Bttig5GbtmjvdI3p4bEv9iaLfWsMAHBuygZkPhwy5SFT3OyJeBjxNZm6OGgF1UU7XBneYVqNVb4leg8s7XDrkKnFLBarRiyMw9RtQFT7lviFQz3ZKG3S7VzGrHUqQi8xy2/EzC2YXC75a+ReojYgJKdhixkTFutlTl8DQnjxbMW6ktnI+zUaEKJlZ0WIOc1n+yLbyfMqx6R//HdvDABweh7nCYh2yA2g+t4h04pZKxa962Y/tViZ8YsNEJffym2kXqeixGWW34hZq2DmcZLXu5eqWOdC1bDFjAkrdMuc/gZkwYunPlbJbOS9Fc8W23xghFiLFyVzHOvY5dxQfHOjI/HGevcGAOB2PNBbMFH/yOE74xSqlsxgh/KqLFy3fGvo0wtKXQi8fMgxy05JJTPYOsWgWBttyXZGX5d1Xsxs/9K1ULS+Xr7rsDVTyizj5Nly/QZEiWdjrJbp5730vc8mzlYfODSP7xO+LjQTTI/8fYbFfmgMAHA67rIBCQcZFT1OOqy8MW285+BsHcItmcU4kxPkKus8fSTLLiixGGm6qrgo8jU7m+vUBmQi5G5ZQ3byuEi5ecz3j6gLbgtLV2t8bQNSxYzoiOfQWDHu531NA7LWhxZ8rZsHSyYaEADeDbs2IC3kYXgfLIVFH9+bo/XdG+Pxuc99BwAA7xs0IOCuoD048oqbwL4DAIDzMdyAzI9Iux91lo+HUQjAGua9t+IROxoQAAA4H0MNCAAAAADAHqABAQAAAMDhoAEBAAAAwOGgAQEAAADA4Qw1IL9/+nr579fEl4+XL8ocjb/zmom/P+hzTD58WnR+/XL586dlLMgVdnz5+GWZ/+nDfH1PKA7/+fiTOnYNuL4/v6yI4Qk4OmYa2n4BE4P32K05w14CAGxnuAHZcuOvKZ50AFprvMMxNCLXaEB++nj5z9dPl9+1MYXNh6XQd60G5NqHOhqQhbMV0LX32K04W/wAAOs4dwMyWOw512pASO5IDLbGTOpDA3L/nCoWG+6xW4G9BMD74NwNSHg0XB+OPW+zWA0I2dBa6/G3eERNaDILGzlcZ/HoW4+t1Bdj+CG+Mg2U8VmuT4hXroWdaV2Pndq6POZRriv902IWr5O/in/aXjD2h6S1X9b4Z9qZ0PLQtSc8nP1i5b1l59p7rNAXiPuUYsnv8SAnrc/nB5fN51p7ohqb2HIOAQDOwSkbkN6Dmh9uEm2M7OfXyJ4Rf9bINGMWDv6yuZBo+uJBvKzj+qTuMDet92JFWHa21lnIuHD5Xsw8/6jo8f0j5bTQfFnrn2cn/3mea8SiG2e/ePrCz4qdwW95fxEd8SniHp6gLHkh+V4DwnWEsdQseXtCjq2KHwDgdNzlE5CMVzy0sb+1V38D729r9rdkWjHjB6yFpk9em/3UYsUer4d5TiwtO1vrVJTH+ly+FzPTP/EzoT2N8pDr52uj/k2szQP9vuY+MvdLQ58Xz4C2nqHFTDaC3DZPH/ld3G/MTmtPtPYSAOB+KRuQcLOnVymBzhu/sS4jD6cmKw5Hc6yyMdHbgKQDsZjbIdOKmTzEKzR9E+YBb9q3xC8UgGSjtMk71L11KkIvMctvxMwtmFwu+Wvk3sLaL8P+TWzNQ6+ejLlfGvrceBK0XuSKo8WMZM7Xgq7yCYulz/Tb2RMydsSa+AEAzsfjPAFRDrIRVN87ZFoxa8Wid93spxYrJ35U0Lj83tzKdSpe0WjEzCtgfJzkDe2lCW+/ZLr8m9iSh95Yc8z90tDXiqe3RwgtZmQ/bxS4L54+029vT3h7iV0DANwfD/UWDOm35rs4B2RLZrBDvkLN1wcO3Yx3wMviSXOtfMkxy05JJTPYOsVArOWv2KOvyzovZp5/AdoTX75c/tNhq6SSpeDFjOPZ2cpDb6w5MYb6nvD0dcVz5B7zmoWJwtcge8m1d37QOis33l4CANwvd9mAhMOKDjZOOry8MW28x5/qEBa0ZBbjTE4+TOU6Tx/J8goKHdaariouinzNzuY6owGZi09aQ3byuEi5eazlHyELbovKB6LXP4OWnVYeMoXeTp1BB5PLY+Dl3Y3ninuMzgE5NtuS9wMx7Ynfmb7W+SF1znMbewkAcJ+cuwE5CaMfdtzK0fruDcTnhmhPQMI15AQAMAYaEHBXhFff/BU8OBbliUl8MmO/LQMAABrDDcj8KHTgPWz+eBgNCFjDvPdWfPYD7EtxDgTQfAAAxhlqQAAAAAAA9gANCAAAAAAOBw0IAAAAAA4HDQgAAAAADmeoAfnhj/+7/M+/E3/9os6p+fnyj7xm4h+/anMcfv286Pz318v3/8pjSa6w48ffvi7z//i5GNsLisN3v/2vOnYNuL7v/1oRw5Ph5eiI/O2HvgcBAAC0GW5AthTe8eIZD3h9jX/4h0J2jQL2r18u3/37sz6msLlZEfqu1YAc3VQRXo6ulr9dWdeA3CLWAABwNs7dgAwWe861ChjJHYnB1phJfWhA7h80IAAAsHMDQsWxNT5UPMPbL3UDEooTvfIkBgsY2bD+ET+94uVvA0U0mYWNHK6zeHtJi12tL8YwvfIO8Pjw6xPilXlhZ1rXY6e2rodinfKUwGsy9DHdP2tfxliV1zQKO7PO0PyWckmPGjfFh6NjDQAA98YpG5Ceg3qepxz+1lgoIOKw9+yVrJFpxiw0H3Uzw9H0xQK1rOP6pO4wN633YkVYdrbWWfz42+eqcZLyPdmW75p/lhwab+03N388R14zLHS3YrZ3rAEA4B65yycgGe/Arsfo1bOQRfIH3r+v7W/LtGLWihWhxUtem/3UYsXewgrznFi6RdFZ14uWK+2aOeb5R2Np7uIH5cZv8HryF+34xdy7pl83jDUAANwDZQOSHjsvTx3Kw1A7OOOhyddk6sPfOsRNtKLD0A5/c6zyLdHbgIjCFOiQqReb+FaCGwtN34TbgKj2LfEjW7KN0iarKOYxa52JFhutUPfmz/OP/p3GfqS4/vF5gtYpzYWkI38ExbzbzsShsQYAgDvkcZ6AiGI8iup7h0wrZq1Y9K6b/dRiZcYvNkBcfiu3kXqdTj1Py9VQ/lz/YrPxw/Q76fxhakJ+SE1JMV/Snb+fzb3t+RC5dqwBAOA+eaC3YKJ+v1gYOIWqJTPYoRTCcN3yraFPbUCUguXlQ45ZdkoqmcHWKQbF2mjLbGeeI+Kk5cge8/yjsc+X79PnTmgtPQnx8pIhGeY8vv+CD/VTPc+HzG6xBgCAd8RdNiChaFBB46Qi4I1p4z0HfKvItGQW40xOkKus8/SRLL0Bod9jkdZ0VXFR5Gt2NtepDYj0jZqDxc5KJtEx1vQv25Bs6sktIXWGdWHvlbGm/Z/fWhzygdmZKeYMrAMAgPfCrg1ICzpghxqQU0BFr/Vhxj05Wh8AAABwPGhAAAAAAHA4ww3I/Hi44z3sSPnYHA0IAAAAAIYaEAAAAACAPUADAgAAAIDDQQMCAAAAgMNBAwIAAACAwzn/h1DT9zFE+J+nJrne909c6XsUtv410Chc33v4SyIvR0fk7/boe3cb15DpcbQ+AMB7Y7gBOfbPcOMhp6/xD8DyC7p2JHzJlfENpgqbmxWh71oNyNFNFeHl6Gr5OwVoQDRob9vNZ9KXqO4B4wvxmmMAgJtx7gZksNhzrlXASO5IDLbGTOpDAwLeI7T/lnzHZmPej6mB8PZ9uC/o6/eVJsMbAwDcjl0bELrRW+NDxdP4KvZQnOgVDTFYwMiG1lobOhjrbynVZBY2crjO4u0lLXa1vhhD/mqQx6d8lSgP3MLOtK7HTm1dD8U65fD3mgx9TPfP2pcxVuU1yfd/UXyteAofmD1ZJ49f0EU5Tf99f3jL8Nfy1XcRb8V3L9bWmC/T3hMt3y22+KASGoxynwcdLL9eHvPcHyn2zL/WGADgtpyyASkOOI447MI85QC0xsh+fq1lr2SNTDNmofkoD12Jpi8e7ss6rk/qDnPTei9WhGVna53Fj+k/hsu/S9viHFu25bvmnyWHxtsNSBlPnk8vt2GM7clgAxW41FSS3jjn8+UHpZHUbB6Nh0SbY8Vs/tnYSz2M+mAim4MUw9i8pNhN+2k+B3hTw5sXKccbAwDcnLt8ApIZO7DpIBOyBg+l2v62TCtmPYe9Fi95bfZTixV7CyvMc2Jp2dla14uWK+2aOeb5R2Np7uJHXfQ1qhjP+fNzG5oLvne4LWyOZYsZDyPW3lhmKGbTz+ZeynMbjPpgkmL2Y7AtNhi5aYv2TteYHh77Yt+y2LfGAAC3p2xA5gMgUx4kxQ2diAcOX5OpD3+toLpoByjDOzCrscq3RO+hpB1gHTK1mMWC1IiFcWC6DYhq3xK/cHAnG6VNup3LmLXORIuNVqx68+f5R/9OYz9SXP/4PEHrlAZCQW1AskxpP5FsMOPF7Fzm9DUgRCtH1hgxFLPp52s0IMTwfgkxp/ksXzy3Mo/5mvSP/+6NAQBOweM8AdEOsgFU3ztkWjFrxaJ33eynFiszfrEB4vJbuY3U63TqeVquhvLn+hebjR+m30nnD1MT8gPlpqPgVHkgmbSukVszXnl9Mae/AVnwYq2PjcXM2Ut5boNtPjBCrMULljmOdexybii+udGReGNDZxAA4Go80FswUf/IATvjFKOWzGCHUgjDdcu3hj69aNSHvZcPOWbZKalkBlunGBRroy2znXmOiJOWI3vM84/GPofPCVChorXhrx6cvGTKeJY6aMyScf0GRIl1Y2wsZtL3Pps4W33g0Dy+h/i60EwwPfL3GRb7oTEAwE24ywYkHFZU0DjpQPLGtPGew7F10LZkFuNMTpCrrPP0kSy7aMSCo+mq4qLI1+xsrlMbEOkbNQeLnZVMomOs6V+2IdnUk1upz80dG1/bgAz5Lv3rHSvG/ZitaUDW+tCCr3XzYMlEAwLAXbFrA9JCHnj3wVI89PG9OVrfY3OfexIAAO4fNCDgocGeBACA2zDcgMyPQbsfZ5aPgHHYgzOBBgQAAG7DUAMCAAAAALAHaEAAAAAAcDhoQAAAAABwOGhAAAAAAHA4Qw3I75++Xv77NfHl4+WLMkfj77xm4u8P+hyTD58WnV+/XP78aRkLcoUdXz5+WeZ/+jBf3xOKw38+/qSOXQOu788vK2J4MrwcHZE/DW0vgYnB++/WHH1vAgDWM9yAbLm51xRPOuSsNd4BGArZNQrYTx8v//n66fK7Nqaw+UAU+q7VgNzi4PZydLX8GZylmJ6tgK69/24FGhAA7odzNyCDxZ5zrQJGckdisDVmUh8akPfNqQrohvvvVqABAeB+OHcDEh7/1gdgKE706osYLGBkQ2utx9/iMTShySxs5HCdxeNtPbZSX4zhh/jqM1DGZ7k+IV6dFnamdT12auvymEexTnml7DUZ1pjmn7UvY6zKa5LCf0XfGt///EI5G8tR137xcPaStSdadq69/wp9gbiHZT54jnMOuWw+t8iD0FnmaNsZBQA4jlM2IL2HMT/AJNoY2c+vkT0j/qyRacYsHO51M8PR9MXDdlnH9UndYW5a78WKsOxsrbP48vFT4Zu0Lc6xZVu+a/5Zcmi8t+HVZKz1Pdi1IkfEqnvM2UuevvCzYmfwe+X9V9wP4QnKkgOS7zUgXEcYYw0m18N9kmOr4gcAuAl3+QQk4xUIbexv7RWe8srcQrO/JdOKGT9ELTR98trspxYr9gg9zHNiadnZWteLlg/tmjnm+BfG0lzuh/a0ysK0b4Xva3NEv6+5x8y91NBn2pnnausZWszo6QeXyW3z9JHfxb3I7LTuMRm7LGc0fgCA21A2IOGGTq9EAp03d2NdRh5ATVYcgOZYZWOitwFJh14xt0OmFTN5UFdo+ibMQ9y0b4lfOOSTjdIm7+D21plosRG5Gsqf41/4N4x9uPz96dNEXFcVLgfLljW+b81Rd4wT5l5q6PMaggCtd2KoxYxkzteCrvIJi6XP9DvIWHIwM/klY0esiR8A4DY8zhMQ5bAaQfW9Q6YVs1YsetfNfmqxcuJHRYvL782tXGch52m5Gspfw7/QbEy/k87fpybkd8qNLL4Oni2ZXt+35GjNPWbupYY+005l7nyNocWM7OeNAvfF02f67d1jaEAAuGse6i0Y0m/Nd3EOwZbMYIdSCMP1gYM14x3iskDSXCtfcsyyU1LJDLZOMRBryZbZzjxHxEnLkTfm+UcNyJ/pcye0lp6EeHmReLZkvHhyaN7aHIW5A40TEdYY+8XT59kZGL3/nH1LFL4G2cue8M4WWmflhu+zGAdbDgDgXNxlAxIOJDq8OOmA8sa08R5/qoNW0JJZjDM5+cCU6zx9JMsrGnQga7qquCjyNTub64wGpPSNmoPFzkom0TFGuP5lG5JNPbkdsoXp86B1a3KUKfR26rT2EuHFbE0D4sWMzgg5NtuS9wox5ep3pq91tkid89zcyBCTLPKhJ+8AgNtz7gbkJIx8mHEPjtYHwC5oT0DCNexnAEANGhAAwD4oT0zikxn7bRkAwOMy3IDMjzsH3qfmj4DRgADwfqnfgkHzAQDQGWpAAAAAAAD2AA0IAAAAAA4HDQgAAAAADgcNCAAAAAAO5/QfQg1rB3StxfsLneI7Fvj3JFyZo3y/JmfwwcvfXrnd+hdiAADwaAw3IEf/Ge6aArbGzh7bQrF6wAZkS9739mGLLV7+tuYWDQgAAIxx+gZkDe+lATkLZyquaEAAAOB9cNoGJBQE49H4n1/omxU/xFfXgfhdA8UaDltPNszX2SvzaFstM68jrCJVyKxsZWOd34ng+U6skWnFLI8v1ydSXHriabEmf8t4vr6MbcltxsqfN9afWzQgAAAwwumfgGiFIR78y9c7k118jmXnl/SfleXfSU6e15JJaLbIeVymV/B60NavlSn9k77zeIW5TMeWvPfkj+tv+bcmt8scW7Y25uVWjm2JEQAAPCJ324AUcugroNkr3l47uWxVpnhlrtkS/ht49ju3JcyX4wNo+tbKlP7NshU/5f/psSXvmg+mLflnx781ufWueWNWbrX/8wQNCAAAjFE2IPx/qwx0HrKNdZmrNiBMZ7+dE0l2JVMpMpUtmjxCNEP5+miBsgrmGpluAyLfrhC+bymuPfmTczz/1uQ2Y8VTHXNyq+2NLTECAIBH5KGegNBnDvh1LrslU84PKIXIQ+pv4RXMTK9MtwGRPvQ2dB305M/zU/q3JrfeNXPMyy0aEAAA2My7aEDU4iNf1U/QvHldfoWbZEuZ9Lv01bLFKmoSTaaHVzAzvTKlf1y2jJ+UacWzBytmli2SXlu83GY8PZad1nyuL6wVMQQAAOBz2gYkHP5URDipGMgxzaZiTlqXC0Xk0+VPVnQ8mZ4t3tpqnVHMJJ6+LTK9ok8F1ZNZ6O3Q2fLBsqXHP82WkdwGOsa08XlfhKdEy3zSv+XeAACAR+P0T0A09pIDAAAAgNuABgQAAAAAhzPcgMyPnQc+E8Af76MBAQAAAMBQAwIAAAAAsAdoQAAAAABwOGhAAAAAAHA4aEAAAAAAcDhVA/L8+u3y7Vvi7eXyJMZ1ni+vec3E67M2Z4Sny8vbHnI4Uebby5MydgwU21J/ilt3nGtqmTfg+XXZM9/eLi9PeWy7f8dwL3YCAMD7QW1A1he0vRoHNCC9ebh9AxJ90HN1nsLuxwkNCAAAHA0akAMZie3dNCBPL5e3b6+XZ23sRNw8TgAAAApu34AUj++z7iwnvTIN8CIXx+d1r8+LvIbMxbcsu6d4Cn3zK+Xa36eXN2aPWDeR9Yd5+Tqzv7jO6ZDZRI0LjfE4TxT+0VsqVh6yzDqGln8RoS/wNl3345n3Jpe9zBVxST604jlk50hcAAAAuNy2AQnFi39mIJOLSR6Lv2e7yEZZkGebGzLjvFg4ev18enll8ric+LNXMHlR02LL53OsPPTIVOmKy/J71JF+VvLQKuwZzb/Ch/AEJcewI55MRxibGw0rR/FaK061nVJGikWYk3429icAAIA2Yw1IKhbLK0FJPIj7GhDv0K7lLAWCmgflVfhkU4/Mt5eXoeZDY7HFsVN5a0KLbV347Lm9MmucuGhPMJIePw/pmraeUfsXm79FJrfN10e+FntPiUdG6m3FqcuvkbgAAABwuWEDIgsRxzngsw2S0IC0Zcb52pMAB01nKDYtO9vNglW41Dx0yqxx4pKatyKfSU9XoR1uQFIe8rWgq3ySYOnr2ptVjuJ4K06qX1viAgAAwOWGb8F4c50DXinCC22Z5FuQ5RTNkli8eUyWYjNmpxZbq3CpeeiUWePERWsg0jXXPzHXiqXmH9nMG4XFfl+f7auXo/h7K05dfo3EBQAAgMtNPwMSDm21eHkHfByzDvuWzOxbKILmkxyOeHqQX2kzW+Z4hQKVx8p10a46tlbhCtcr+/pkathxkcWb++TlIV0bbUA6Gkg9nu0GRM9RvKbHc6Gyc2tcAAAAuNz2Q6gT4eCmYpHoO+DjeL2uLXOZl2W0344p5b1eXrgtudgRU4F75mO5gBLTNZLDbVlkLnMWvWJOU2ZeZ6PHhcZiseVy4/Vow3gD4vsXmj8xNtvixNPbm26OAlo8W3nYEBcAAAAuN29AwIOhPQEJ1wY/lwMAAOCuQQMCjkV5YhKfXthv4wAAAHh/qA3I/Mi56zMSRPmoGg0I8KjfgkHzAQAAj0bVgAAAAAAAXBs0IAAAAAA4HDQgAAAAADgcNCAAAAAAOJyhBuQcH1C9xl/aRJnr//pnO/VfH6W4dce5Zuwvmhr6+PePdP/J7HYfrou/l4rvFtnwHR9jeQAAgMdguAG5/Z/oogHpzcN+DUgcG4/5fTcgma1fMoYGBAAAatCABM7YgNhcpwFx0L487F2ABgQAAG7FuRuQ4rF/1p3lpFfXAV4c4/i8ThYOR+biW5bdU3SFvvnVfu1vWcjEuoms33r0X1zndMj0sPTNqF+37uPLlHb2yhbrCr/pbaHOPVHlyFoXKfOWsWxRxiZ68gAAAI/EeRuQUPS0zxrkwz2Pxd+zXWRjWZiYzQ2ZcV4sRr1+Pr28MnlcTvzZakBKO/XY6oXPzkOPTA+pr2giOIpNFpoPll8tSv/qWFt7opUjvidkDOP62l7blu15AACAR2C/BiT/J2Lm+/3xkO5rQMoDXRvTCzs1D+IVLDUdk009Mt9eXoaaD43FFsdO5S0NLbZWoVbz0CnTw9K35glIRpMZrg3La+fWavYky1i9TvO1luXYskMeAADgESgbkNxEzAwcpLs2IPEphD63Vdi5/YlQpNoy43ztCYmDptMobqWd7dhaRfTeGxCCbMvx6rLRza0Ta2ttGFP2pBLHygfPlh3yAAAAj8BJ34Lx5o4V9oW2TPItyOoutrGp4TFZitWYnVpsq8KXUPOwQ+Gz9F2jAVmoY6gymNtF71iO8pMM3kRXPni27JAHAAB4BE77GZBw6KuHvFds4phV8Foys2/kp/0khyOeqoTik/WXMmMRz2PlumhXHduq8PHrlX19Mj0sfddtQEScTLzcxjF9T7RztKzTbal98GzZngcAAHgEzvsh1Il8eGeibq/Y0O+pOFTr2jKXeVlG++2YUt7r5YXbkosdMTUMz3wsNyTEdI3kcFsWmcucRa+Y05SZ12l06BtuQDyZyljhm0e9lsfM2hN2jix5uq7AbKuzdlUeAADgsTh1AwIAAACA9wkaEAAAAAAcznADMj9a7vqMBBHfE8/r0IAAAAAAYKgBAQAAAADYAzQgAAAAADgcNCAAAAAAOBw0IAAAAAA4nB0bkPRhU+1bJPOHULu/76Fm21/gPBJ6HjbDv9ui+H6U6+b9rjFjdk7qe2z7Xjr3fXule+VdssNfMT7IGXKN++i9UjQg5Rc2RfoPDz/IQfZBDciZDr3jbbHzsN6WKFM/fK6b9xHW+nedHHkxOyd1HLbvpevEdi/8vXsIxTfzpmtUqG9pk8rWBuQ+zpA9GLmPrsG577mSugG5UqLRgOjjR7LaFuX/N+nlYRuQDTG7FSNx6J17ldi+J8I+ebu8vbG98h4bkDs5Q/bg1nv+nu65gQYkbsD56Qi7QcK6fN1Yr8sWMotxMTbRCmphB2eWmzrRTPdNLtYF8iNE3Ye2LRb1jb7EjsZIL7dnuamtPKy3JREendaHh6WvmlONeXn3kHsi2tT2T6xLeR9e123nhBEzbw/mg4Pb1Xfg6/7l6/peUtZN5HusiA3zezhmE32HoVzHYyfGmD1mzLT4s2uWf+XcND6x+GDbEkn51WRqpMJM/z3ArIN0zzlce2ZZ8YzX7T0xofqe1+lnTxMtHxPNPOQ51VgrDxYH3H8TOZeef76+hn9KjgpdnHntCt+1vBm5XEN3A/L0Mt0k83t2MTg5yMscb309Rk4v10qZ5dgSoPy7hz5X2pwSbNjLKWwJB8ayUTwf8niv3ZEoQz8gks2i+ZHyrTyM2hLk5M3KEbL3zLuHp4ew/GvtXWvdGjv9mEkZ8fesI+ib5yZZHQXH9i/+rO8l6Z8eByvmfTGz50m83JYyyxiGMSVm+bC1fPeuxQNW/8yOZ0skHfJSpsX8ZGBal3NN+oMPUn78vUe2HU9/T9i+J92Ns0cSZFM8JMI22159rJ0HDTkv+ZTkWHupdf+VtsTfpS2mD4Y+1z9nfxKa/rW+a/dRads2mp8B4YqrucII7Zo9Ro4pnRU5rTyu04Oqo84NSRP6uh4LygTwRNo+yM5yHm8S5esHhDfmXyPGbUlosWPslfd2oZ1kOXb0+idt0tettzOgxUy7xvYg2VHI79qfNYt/zn7pvMfq/Nlzt9y3dm79PHgxK22nWNSHdu0fv7/LuZv3hIbIf8hVktnaL4UcgR3P9vmi++6t4/MMNF8Ynqx6bGUeGvH09tI8X6LM0fa85p+lz/PPz1FE07/F99J2ss1ufkbpfwsmGDQZyRFzhzaRJo+gIDPn83w1qAZmAniACUVPTUz4bHtYkxLg+JD1jNgdaR8QrUPAysO4LQlt8zL2ynuRG4Nwo6Q10hfTP00ns0ldt9FONWaNPbg6P6Z/zn5hevOYpn9oL3XKtKC52f55TSMPrnxuD/2s5K72jw7YMmYzDVuq+T1IG8mWtE/Wn1kRNZ7uGeL43nn2mJzhDLnG/afkQ5Oj+Wfqc/zzcxRR5W7xnftIcnpz3kFnAxKd5gZqc8c3kbEhO5NqYSZA6mvcFBmSxzfCLNvzITFid+QRGpB2zNvUe1L3r7131XVb7ezdb+zauvx4/t1XA7LAfGrkwZe/+E9+aPNq/+qYzey2dxmFTNI9vbh5mfYEFZvePdSE7xHvDHF8d9fxeQYNuz1Z1djaPFzj/uvc85p/pj7XPy9HEVXuJt8XnTTP0z3KUAMyKw4BmoqxmDu0iZJTPfrC2vkGknNrwvyqG5YHddTflNmxGSyfCd0WD2FX2CRZx7IR8nwt5tq1+fqQLQlt8zIsffpYO2Z91PnT/WvvXX3dRjvVmPl70D8ELDz/RIyKvdR3j1m57Ym1KjPb5+5Dbrefh1bMyIa3l+dJhr5/Nf+i3dr8nj0RY+DPYcjzZcrR29SEUHxa+6WfOp6zjGJPtH1vnT0mpzhD/Hjucf/F+NVyNP9sfb5/UUcjlsa9udp3yt+0L7WniFsY+BBqDGwkfmo7zk3BmscSzTGSW4/PQcg3RppP+t0AFQi5s750OFTXfSg585qETKQ+poz36MyHNDEl/FnEWj8EajtqfStsIdTDw9PXsqUeb+dWkVnZr/tn711/3To7E+aBa+/BdQdgwz9zL01j5j2mxDrNWfQaMWvdt2oDoujzdE1kme2YpXg35AXYnDKmXIdtS0TT5yAbkLx+js+aM6sRT29PTOi+R5n7NiBeHlo5auXBYv/7b+195Ovz/bP3p7J29nGL73GtP2ecogEBCtUBka/t90EcAAAA4LxQA7J/zUMD0kLp3GP3qb26BQAAAN4X9ISEPzHZCzQgHYTg80dXaD4AAAC8c+baV7xluh9oQAAAAABwOGhAAAAAAHA4aEAAAAAAcDhoQAAAAABwOEMNyO+fvl7++zXx5ePlizJH4++8ZuLvD/qca0E2/+fjT8W1YM+A/RJNpsdWfe+NP7/Y++DLxy/LHvv0QZ3Tw2iOAAAAHMtwA7LlUPcKz7UYaUB6/bvXBuQsRblnH4RGBA0IAAC8Wx6yAbHonXuvxe0sdqMBAQAAcOoGhObPj+PZEwQpRxarYt1Ettl6vF9c53TI9LD0ZUqZny6/i3GNP798ufz50wf2tla5brk+kWLW459HYWcRE9+WYl2VP3sdIXOasWypxibQgAAAwHk5bQPy5eOnqbgtv9ParFvK4cWKbOSFSbPZKm6Wfz0yPTR9lg0tYpGlwr/8zuPC7QpzN9hNSN+lPsuWVv74OqmD0OLj2SLH1vgKAADgOO7mLRhekKSceeynj5f/iFfTms1W8Vf965TpoekL15RX/i1M3z98quUJ29fk728pk/SkpxmmLXkug49V+0CxXZNl2bJHjgAAABxL2YCEg5xenWY6D/XGusxQA1LJnDAK2FysOguRVShV/3Yobp6+7FuvPLcBYW9zBITto3arOSB6GpCB/GkxrmLm2KKtH/YVAADAoZz2CQh9PoDr4gXpvTQgHOmvhduACDvlteH8Kb5zvAZkJH9a81TFzLMFDQgAANwdp25A5rmhwEyvdlkBm+0IRXYZ4+tCEROFcL7Oixu/Lp8iTPTI9LD0cQqfHEaKvpRp+edBMizbW7Z4+ePrpJ2EFjPPlq05AgAAcCwn/hBqLCKRT5c/eUHKBY2YCurvfCw3JMR0jeRkm0MBy2NsTtZZzemQ6eHpq8aEHRYyhrJQUyH2ZKr+NZC28nhatnj5s+RpYwFmp7l2ZY4AAADchrv5ECoAAAAA3g9oQAAAAABwOMMNyPyYe+CzBPxtATQgAAAAABhqQAAAAAAA9gANCAAAAAAOBw0IAAAAAA4HDQgAAAAADmeoAXl+/Xb59i3x9nJ5UubUPF9e85qJ12dtzllItnb7dk2uawvl8u3lSR27BtfQV8vcHrNHtnOY59flPPj2dnl5UuYAAIDBcAOy/tB7ury8HdOAeHb6PjxIA/L0cnn79np51sYUNhe7QX291HbZMevy4V7snNick81EH879ggIAcGbQgDwgTy9vQzHYGrNRfb2M2NUz917sJLbmZDNXatYAAI/DiRuQOH95xMsPOzH2+hyuUwFZ5pfj3li1Nl1bdNHj5fSqNcBt4dcz+XG054PNelt6oLXycfl4POe1xWN4bX906JufBMTrfI8EG2Z9Mp6LPitmXT4Ezm6nLbOJmSOxdwv/GvssyBzdewAAsHDaBqQ80EvIDnkwc7s8O1s+1HrzwZ+LU6mvsCW8Klx89HzoYdSWHjSbVsczFCFZtEs0fU8vr2wN1xd/tgp7aadulxVz04fE2e3skali5kjmOf4edaSflX0W7J6bEobiCwAAeOzXgKTiq72vHakPbY940GmvsOhVmfJqjOn17Gwd3HVhqO1e5sRXiMvYclDP8za8ShyzZblmo+VgbTxLX3U0fTWLD45/yiN/zS4rHn7eT25np8waJ0faE4ykx/Uvz9XWAwDAAGUDkpuImYFDL6/dqQEhSF+2ZdZb2Zi4SQMSx+b5wbby1abqQydjtizXTERjEVgdT9l8KWj6CE0ni6fqX1izc2HPnN3OTpk1To7MvYAGBABwDHfyIdR4kAbdymEs8exs+VAXBv8wJnm8QNmymQ/qeM2oLS1U31fHs51PfV0dh8UHx79rFHZ37ER2dsqscXKkNRDpWtc+QwMCANjInTQgcW3UHX/WDu9MOCy1V7SNsXm8kO0cxh3Fe4H7oI3XDNkyzzEwbV0fz3Dd8t/UJ16Vh3lZv4hRKHJ5rFwXddfxtOJh+XAfdnbIzPaJtXGu7d8ig/vUsc/QgAAANnLSBiTODYd6pjis6/HSLjHurQ1jij4xZh3GFBO5jh/ixVhhh8V6Wzz8ebXO3njGAlev8/SVa14vL3xuLqTEVEyf+Vgu9MR0jeSYsU5zFr26D/dipy0zrTMaEKL0g+c2NiFcbrwebUADAgC4JnfyBOSkhENfHMLhmv+XIcdDheZIm47Wt5Z7sRMAAN4faEC2oLwKjK828coQAAAA8BhuQObHtcqjXp3yMe+7akAm6rdg0HwAAAAALYYaEAAAAACAPUADAgAAAIDDQQMCAAAAgMNBAwIAAACAw7njD6Emud12XIN3+Jc9AAAAwAEMNyBH/hmurw8NCAAAAHCv3HEDcgbQgAAAAABrOGUDIr86eiZ9FXQxLr8e+vUl6PlG33D5LL+eOtqgrm3Bvwp7IsYh+8TfZuLfAyL0FXbQN3Ba68q3rSL5Gzs3+AAAAACchLt+AqL//xRRB62NRZ2KeSze4do8P9rT5U+Qq31ld24GyuYgy3x6eWVr+Ji/rrAz/R8fOW6rfQAAAABOxH4NiPOfYUVisbx6A5L0L2tjAxL/Fd9SyubP1yq8Il/7VNnEWMa8dfHpxzLG9a/1AQAAADgXZQOSm4iZstjddQNS+ZbI9pq+y4aA02hANJ3NBiSOlTLSk5KWDwAAAMCd8P7egnEbEPH0oAvPbq+RiI0Lt182GVbjQrbzBmOWsdoHAAAA4FycugEJRdl5dT/UgCT9xfxOgh618LcbkHksP71oNSBuk7HeBwAAAOBMnLoBmQtufhrAijd/QjCPOQ0I/7AnX9frT2xC5LraJ94UlWteLy/zmL9OPgEhFjvX+wAAAACchZM3IA+I9gQkXNP+CgcAAAC4T9CAnA16iiMakPgkBZ/9AAAA8H4YbkDmR//df3kRPwuR16EBaVO/BYPmAwAAwPtiqAEBAAAAANgDNCAAAAAAOBw0IAAAAAA4HDQgAAAAADicoQbkhz/+7/I//0789Ys6p+bnyz/ymol//KrNaUO6v/vtf9Wxa3ANfbXMFJvuWNbci5178ONvX5f998fP6pz9OYfvt+GRfQcAXJvhBmRLsfv+r5UNyL9+uXz378/6mMLmojyor5eRwt7lw73YuTOhEXnABuT4WK/z/RZ7AgBwf9xFA0IFZ0TvVjtH9fUyYlfP3Huxc2+ObUDOwy1ivYZ7sRMAcFt2bUCowWiNjzcg9Crs6+X7f5XXSZZ8HB8KU77G4cXq18/FWG1vhz72ilD6JItjsY7pK2xl87t8CNyLnTV5H3EZ2baWndY1ovBBjJf+9T01snzPrJH5/V+Us/RkoVrHr0+k/G2JNaHGJTw9K/c/5SXbs8b3rXYCAB6L0zcgWrEJByW7JvWadobmoy7aHE3fj799LtZwfdInvl7aqdml6SNasb4XOzWCPlaYguxUbD07vWvSB+67ZXsvvTb0QHbxPShzxGMZ5jIdq2NtxKW4H8LPdRO1xvc1dgIAHo/TNyD1GnqVKA5KOjzZq33LzpZ9RI+N/ACW8+cx5fMZml3WYd4T63uwU4PW8HxxG0w781z1mr8nwnw5PoBpwwqZpn9aAyByMx7r9r0S9f9i7qc1vq/ZEwCAx6NsQNJj2eXxaXnImIWpWJPR3x5oFc0CcVgGKhsTzQYkPt529Wv6CE1nOpRvUtjvxU4Db41pJ5tTXevcE/n6qL2e76MyTf/Mvb7kZjjWHXEhyCbNP2KN78N2AgAeklM/AVH1KQVTYtnZ0q+vi40Lv84PZbOgXLGw34udFt4a0042p7rWsScW6ji1sHxf6Jdp+kcNiPRBXBuOdfe98nOwS5O9xvc1ewIA8HictwFxDk+S4x2K4dBUnhCE69aBbOqLB+xsd5i36C98DgUjj5Xrou46PtYBb/lwN3YS2QYx3mpAdDuXOZotrT3BKXR0YPnO6ZVJ8/g9sMiuC7mU6cbawI0Lb3BCruqnlmt8X2MnAODxOG0D0jr4wsFKxSkh9RbjTE6Qq6zz9JVrPl++53NzkSWmQ/cHPpYLKDFdIzlZn7Q/z8k6qzlp7F7sDKxoQDw7W7bIcdMHYb+Fp2+LTL0Bod9jE+LJLPSu9CPEJeWc20J5yW+dbvV9jZ0AgMdi1wakBR1KfQ0IHcT1q7HrcbS+tdyLnQAAAIDPSRsQAAAAALxnhhuQ+bFq93u85WNlNCAAAAAAGGpAAAAAAAD2AA0IAAAAAA4HDQgAAAAADgcNCAAAAAAOp2pAnl+/Xb59S7y9XJ7EuM7z5TWvmXh91uaM8HR5edtDDifKfHt5UsZ8nl7elpi8Pqtz7obn18WXb2+Xl6c8lnLYnfNbcS92AgAA8FAbkDVFOrJX43CuBiQTGpG7bkBi8dbjep7C7u9BNCAAAPAeQAMywN03IE8vl7dvr5dnbexEbNuDAAAA7oHbNyDFWwJZd5aTXu0GeOGM4/M62RQ4Mhffsuz+gqw3INzGieKVuRgL8Lc9HFQfaMzSR/6RbCtmWWbtr/8Wk+6Dlmsen7yPuOxlrshf8qGwg5NkDtk5EhcAAACHc9sGJBRErSDnApXH4u/ZLrJxKUDlWEtmnBeL0aifvMBGhO5sNyvC8/zw9KEzNl0+LL9HHelnJWatwp6p/fN8iPK9BoTrCGNzo/HKfJM+tffgWB7Sz8ZeAgAAcBvGGpBUgMpX+Zx4uPc1IF4hqOUsRYeaB+WV/WRTj8y3l5dVzQdRFT7tiUJ6myM3OYsPnm0cZ56rz4tZuqatZ9SF3fPB1xcaEL5Pkp2abql3uAHZGhcAAACHc8MGRBY3jlM0sg2S0IC0Zcb52tOFNmrhk7EQhW+eH6736HV86NCnxizPHW5APB98fV37iMP0rmpAtsQFAADA4dzwLRhvrlM0UmHRi2hbJvkWZDmF2EItfFIOu0ax5EW2L66OD44+N2ZiruW3VphtH3x99j6KDRYfk3pXNSBb4gIAAOBwbvoZkFAI1ILoFY04ZhWQlszsWyis5pMcnbpwyWLKdLiNko/tg6PPjVm6NtqAdDR7sy1B9pKXVgMy25mfhjC9wQ4nN0N56IkLAACAw7nth1AnQjGgApToKxpxvF7XlrnMyzJab4vUugKzLbH41ddTk8PHJnpjq/tAY5a+Vswm1AbE98/1ITcPxNQwPDN93j4qfXu9vEg7pU1hbG0eOuICAADgcG7egLxbtKcH4dq6z5/chPfgAwAAgFOCBuRaKE8b4it/6y2NE/IefAAAAHBK1AZkfozd/RmJ8vE3GpBI/fbF/RXu9+ADAACA81E1IAAAAAAA1wYNCAAAAAAOBw0IAAAAAA4HDQgAAAAADmeoATnHB1Sv8Zc2Ueb6v/45juI7NA77LouUQyvn+UvIAr1/otuQeXP8fbZXHrb91RkAANwvww3I7f9E97EbkMyxX6blNQtxbDwf992AZLbmAQ0IAOBRQQMSQAOyGu3Lyt4FaEAAAOCanLsBKR7tZ91ZTnoFHeAFMI7P62RxcGQuvmXZ7cKaY8IfyS8+CluyPOULvsprxjqGXvh4TCaKpwtiLNB+u4T7pRZazZcGvsy27zpW3uk6+dm5X+aYxev2PovoebBsUcYm1t9TAABwv5y3AQmFTSuQ+QDPY/H3bBfZWBYfZnNDZpwXC06vn0EfKzKhIKUiphcnIurgseB22+sW6jnC1xynNKeIS3hqMZCLCakv/E5+Sxp2czQ/e3zXsPOe4mDsl6eXV7YfvHVSR0Sz17allkG/LzkDAIDHYb8GJBU1+z39eBD3Fb3y0NbGuJylCFBhF69SqemYbOqR+fbyMtR8EKGgcJ/ZWxKxSOuv4MvCRXYvhc5bl6kKn/YkItlSNzxeLHQqfZkVT0Aymswe32vaedf3C5tfjdXrNF9rWY4tyttVaEAAAI9K2YDkJmJm4LDctQGRBZPjFJTK/kQoRG2Zcb72hMSmVUBCg5LsKObxYkQFShREc12iKnypyBWxTzpm//L8cH3MT7NoK0W5F0tmy/cKN+/OfrHWhjFlv/KcJSofPFuU9a39AwAA75WTvgXjzXUKinLAL7Rlkm9B1kBB7Y9JbICWuYs9JMOOi1wXqQqf1giwa7yoE6N5rPRlrtCALOi+VwzmfdFby1/GlP2iNHmVD54taEAAAGDmtJ8BCQe7epB7BSWOWUWtJTP7Foq1fJpg0B+TUkcgFLS3y5urS1k3URU+o8EJv7sFuo9aX+KqDYjue02cp8uKY14DMo+FOGU5cp1uS+2DZ0upL6wVDRAAADwK5/0Q6kQ+oMtX7V5Bod9TAajWtWUu87KM9tsUdkxqO+qipL3C99YpY8V4lFdfT00VH5vQ7ea09E0MNyCezJ6YWdRreW6t/VLuh9fLyzxmydN1BWZbnbUhXst80t/OAwAAvD9O3YC8f6hhGPssxiq0JyDh2gG6AQAAAAU0IDckPJXofoW/AeUpRXzlv+1tGQAAAGAtww3I/Pi48zMS8m0BNCAsjt0x3E6RuwCaDwAAALdjqAEBAAAAANgDNCAAAAAAOBw0IAAAAAA4HDQgAAAAADicoQbkhz/+7/I//0789Ys6p+bnyz/ymol//KrNuT0//vZ18e2Pn9U5+5Ni0x3L4/n+Lztne8WM9tV3v/2vOgYAAOB9MtyAbCkUXjE7C6GoogGZ6cnZ1pihAQEAgMcDDYjg2Abk/KABAQAAcA12bUCoWLXGexuQrIs/5udrSdb8+P/fn+P1Xz8vP2fENXUdQy+m5dtI5RMLMRb4evn+X3x9DfdLK94tOy2KdUzu93+RTdzWUmaxjvlH1//xq72OsBoQy5ZqbAINCAAAPBanbkB44QpFLhVGq+DlZoDrCHK4DHXdgjZH+hWKZ5rD5f/zX79cvhP6W2j6euzUKGyZ4HYHm1ljxMd+/O1z0TB566QOQrPXs0WO0e88vgAAAN4/525A+JOGUNzjq+9Q8IynAmUxpIZkKZ7eukxVTLWnKrMtdcPTioFEK949dtaQLWIN2Z5iKGOv6dXGqpwp8ahlObawPGbQgAAAwONRNiDpFfzyaLxdKGKx5Gsy9dsQow2IV5RCg5J0FfN4gaOiJ4qsuS5RFVNWxGeYDvJpnh+u1357WI1Ay86KKneJngZEW5vGqpzx+CYqHzxblPWtXAMAAHh/nP4zINpYSXwKwedmPSTD1levI9QGRBRMfo03CkSfzQtWA7Kg21mhFHaO3YDU8rlNVc6UhkxvQAxb0IAAAACYeAcNiKI3FMmvl+/kkwuBZm/dEOgNTvi9UfR7aDcg7bhmaJ4li8a8BmQeCz4tcuQ6zRbNB9uWUl9YK+ILAADg/XOXDUgoblQkM1Wh058aeOuqsWI8yquvRzuLNRM9xdTT1/bPRq7NttB1vQFZmoDI58v3bMySp40FmK3m2vAEaZlP+ntiBgAA4P2wawPSQhbB60ENw9hnMVahPQEJ1w7QDQAAANwx77IBCU8lBp4arEb5fEh8mrDtbRkAAADgvTPcgMyPzhufr1go3764ZgMy29dt23aKmATQfAAAAAAthhoQAAAAAIA9QAMCAAAAgMNBAwIAAACAw0EDAgAAAIDDqRqQ59dvl2/fEm8vlycxrvN8ec1rJl6ftTkjPF1e3vaQw4ky316elLH3zjXieW5oHz9crp9fl3v329vl5SmPpfuz+36+FfdiJwBgD9QGZP3BvVehQwOyL2hA3j+xeOs5Pk9h9/OCBgSARwINyEOABuTd8/Ryefv2ennWxk7E4zWGAACL2zcgxWPjrDvLSa+IAvxwjePzutfnRV5D5uJblt15aKsyl3g9vbzNY4v/3P6J+ZUd2UKPyC3/PITvXlzmsXjdjqdFy06hL/tHsXp9SWPT+mcqjmzcxZA5asvEkmsPsW7eS46+sBdE/LRrFsZe2rRfDP18X1b3idQXeJuux5jw+zjISev9PS/imXwo7OAkmUN2jsQFAHBabtuAhEOTDhA5lg+xPBZ/z3aRjWWhYDY3ZMZ58cDq9tOUmWyhg48fpNMBWdmVfQrz0s+Gfx68EPSPrdUn15Wxf3p5ZTFhMlOBpX0Q40NFgWKux5Bjymz4UO6J+HtPPMt1vfri/rEKtEvX/lx+jzJtW4rCzRG2aPYVvocnKNmnKN/yL+Z0WRvG5kbDyl+81spLbaeUkWIR5qSfjT0BADg3Yw1IOqSWVyCSeAD0NSDeYVHLWQ4mOvyVV39q0efksZex5sOVmQ5jHo/0KDwWGmFnHnP9Y/MVwjwptzm2Vl+9Lsday/8sk81Z9lNfAyJZ7HR8UN5+aBW6SHsvWTEr40dze3yLMlW7tu4XbT2jml81Udw2X5+15zXdUm8rL11+7XAfAQBuzw0bkPpV5IJzsGQbJKFotGXG+SOF0JPpxIsV4fnaTgdnKADJb6lbH1urT8knLwhaLkgm832JD8WxI+6WzOaeKIuUu48z7l5qxIzrpJ/Ne4Lj7KWt+0Ur1Iw631Fm6U/5JMHS58ZWiynT28qL6teV7iMAwG254Vsw3lznYEmHj37QtmWSb0GWc1iX+D6Z8dIKQrrm+sfnN4kFTc8XH1urT/E9FQRN9yyTFY0lPj0NiCPT80HZE137eHAvlTFbxul6U1dAiWdm637R1jOq+RMUI94oLD74+uzYevmLv7fy0uXXSFwAAKflpp8BCYeFemh6B0scsw6ZlszsWzh8u161ejJHDmOu3/Nvudam9MkeW6tPruM+xZ/nsfzKl2RSgdjQgKgyXR/KdTFfVlw4UaYeh3bM6Pe3l+dpnl34JdE2bT6PLf0e9Xfnb7QB6Wi+ZluC7CVOrT2v5y9eC3Y4911l59a4AABOy20/hDoRDgw6pBJ9B0scr9e1ZS7zsoy+t2N0ma14xcNzXifsHz84a7+9mFxDnx3n18tLlrm6AXFktnzIRZKYrtGYnReO5WNPzFJ+i2ttSh95TDfsF7UBqX3jcik3cmy2JTcPxJTLZ6bP2/Olbzx/eY6wKYz5du5/HwEAzsDNGxBwZpDPd4v2BCRc62vIAQBgK2hAgAPy+W5RnpjEpxf22zgAALAnagMyP+rs/IyEfESKgvVeQAPynqnfgkHzAQA4jqoBAQAAAAC4NmhAAAAAAHA4aEAAAAAAcDhoQAAAAABwOEMNyDk+oHqND0ZGmev/+ucB4N+zUfypZspv9364FfdiJwAAPAbDDcjt/0QXDcjxxOKtx/w8hd3fn2hAAADgTKABCaABcXG/tvs8bNufAAAAjuTcDUjx2D/rznLSK9oAL45xfF4nv5bZkbn4lmV3Fl1V5hIv/vXUi//c/on5lTnZQm9xWP41MGzZpC/IrG0ovna7+vproS/wNl3P+RNy0no/ZiK3yYfCDk6SOWTnXnkAAADgct4GJBQ97WuhcxHKY/F3XvSXIlOOtWTGebHgdPtpyky2UOHihXAqcJVd2acwL/1s+OfS5d/ye0tfq7BnwjxxrchD+n9FYu6jfK8B4TpyzGKj8cp8kz6192dtp5SRYhHmpJ/X5AEAAECT/RqQ/J9Xza8gJfEA72tAvMO+lrMUFmoelFfvatHn5LGXsebDlZmKKY9HeisjNgrCzjzm+sfmVzi2bNWnrWfU9sUmbpHJbfP1WTHTdEu9ww3IVfIAAACgh7IBCYcvverLlIfzcQ2ILGAcpzBU9idCA9KWGefrTzN0PJlOvFJTVMRpc+FzbNmqb7gBSfHM14Ku8kmCpa9rj3GY3lUNyO55AAAA0MNJ34Lx5jqFIRUPvVC2ZZJvQZZTbEt8n9wGROpI11z/+PwKx5at+rT1DM0+8p03CkscfH32HosNFh+Telc1ILvnAQAAQA+n/QxIOOzVoucVhjhmFYmWzOxbKJ7mk5wSW+ZIMeX6Pf+Waxq2LRv1jTYgHY3gbEuQveSsFbPZzvw0hOkNdjh5q+N4nTwAAABoc94PoU6EA5+KTKKvMMTxel1b5jIvy+h7O0aX2YpXLH7zOmH/2sJn2bJJn9qA1HHmckMTJ8ZmW/hbKVPD8Mz0eTErfXu9vFRxETaFMd/Oa+UBAACAz6kbEHCnaE9AwrWRz9cAAAB4z6ABAfujPDGJTy/st3EAAAA8FsMNyPyouvMzEvIRNxqQx6B+CwbNBwAAgIWhBgQAAAAAYA/QgAAAAADgcNCAAAAAAOBw0IAAAAAA4HDu8EOo1/hrmihz/V/43I6xv0xKubByl78ULND7J7MNmTfH3y/Fd4ts+I6PbX8hBgAAj8dwA3L7P8NFA8LZrwGJY+Nxve8GJLP1S8bQgAAAwBhoQAKP0oA4uF+ffs+gAQEAgDNy7gakeEsg685y0ivvAC+ccXxeJ4uKI3PxLcvuLMiqzCVe/DH/4j+3f2J+gkC20Nsfnf5NLHbbNN9qUL48rIUvU9rZK9vK32Bcinh6+yWiNyCWLcrYRE8eAAAARM7bgISCqH0OIR/8eSz+zot+WbSYzQ2ZcV4sVN1+mjKTLaxwhSI3FcbKruxTmJd+7vJvPCey0BZNBIfNaaEVb72gt7Hz58fl6eWV5cBbV8cwrq/ttW3ZngcAAHh09mtA8n8wZn4WIB7gfQ1IedhrY1zOUjyoeRCvbqlBUIs+J4+9jDUfrsxUpHg80tsc6tOGPOb5p7xNMlr4zMZAs6kTTWa4NiyvnT8972x+NVav03ytZTm27JAHAAB4dMoGJDcRMwOHbF67SwMSn0Loc1sFmtufCAWsLTPO159m6HgynXilQlbEKRW1tn/bCp9ZtHduQAiyLeegy0Y3f05crLVhTNl3ShwrHzxbdsgDAAA8Oid9C8abO1agF9oyybcgq7sQ+z65DYjUka6N+nfmBmQhNmpNOwfzt+it5S9jSo6UBrDywbMFDQgAAGzmtJ8BCQVBLQBeIYpjVjFsycy+kZ/VEwoDW6YXL1kwuX7Pv/KJS9Q9lpNFlhi7agNSxtfGy19/XGKDkOXIdbottQ+eLdvzAAAAj855P4Q6kQ/2TNTtFSL6PRWOal1b5jIvy+h7O0aX2YpXLGLzOmG/6V9oFJY1NGbryNQxyevnOcMNiCdTGeO6XOq1PEdWXMocvF5e5jFLnq4rMNvqrF2VBwAAAJlTNyAAAAAAeJ+gAQEAAADA4Qw3IPNj587PSMi3GtCAAAAAAGCoAQEAAAAA2AM0IAAAAAA4HDQgAAAAADgcNCAAAAAAOJwdG5D0YVPtGybzh1C7vwuiZttf4DwSeh42w7/3ovh+lOvm/a4xY/a+OPe9eaX74V2yw18qPsg5Ue957LM1FA1I+WVOkf6DxU9AkH1QA3KmA/F4W+w8rLclytQPpuvmfYS1/l0nR17M3hdnut9q/P15CMU386ZrVKhPV6y2NiD3cU7sQb3nj91n577n+qkbkCttAjQg+viRrLbF/T9afB62AdkQs3vjTHv8lIS98HZ5e2P74T02IHdyTuzBrff8e7nnBhqQuDnnpyPs5gnr8nVjvS5byCzGxdhEK+CFHZxZbupSM90HgFgXyI8XdR/atljUh8ASOxojvdye5Ya38rDelkR4rFofLJa+ak415uXdQ+6JaFPbP7Eu5X14XbedE0bMvD2YDxVuV3cxKB59L/eKL9Oyxd9ndR56D0M9f+oYi7XpgxZjdq3Ir5Y7I2btvKe49O6HVJjpvweYdZDuOd72nvCx4hmv62dIuqb6ntdZeW+g5WOimYc8pxpr5cHCjuf6e0zGetkvnn++voZ/So4KXZx57QrftbwZudyb7gbk6WW6geb382LgcgKWOd76eowCslwrZZZjS/Dy7x76XGlzSr5hL6ewJRwmyybyfMjjvXZHogz98Eg2i+ZHyrfyMGpLkJM3MkfI3jPvHp4ewvKvtXetdWvs9GMmZcTfs46gb56bZPUUo3BY8PfbFyyZvi3pZ2OflXGx4yfx8ufF2vYhHrb6veJfa8bMsCWSDnkp02J+MjCty/kk/c08MBkKdjyjDDMupu9Jd+N8kQTZFA+JsM22Vx9r50FDzks+JTnWXmrdY6Ut8Xdpi+mDoc/1z9mfhKZ/re/afVTadj2anwHhRlVzhYHaNXuMnFa6LgqI8ihPD7iOOjckVOjremQok8OTbPsgu855vEmUrx8e3ph/jRi3JaHFjrFX3luHQJDl2NHrn7RJX7fezoAWM+0a24NkRyG/a3/KQ6fEkunZ4u4zxaahuKv++LH24lLmkuyuD22Zbz9mG/OuwewlX0Jck8zWnijkCOx4eueE57u3js8z0HxheLLqsZV5aMRz1T2mzNH2vOafpc/zz89RRNO/xffSdrLNbn72pP8tmGDs5ABHzB3aYJo8ghLAApPnqwE3MJPDg08oemriZphtD2tSchwfsp4RuyPtw6N1QFh5GLcloW1sxl55L3JjEG6itEb6Yvqn6WQ2qes22qnGrLEH1+WHDotyT3BMmY4t7j5j9uaxEbtpbo7lvKYRa1c+t4d+VvJT708nZg1bqvk9SBvJlhT/1p4o5Cio8XTPCW+/9J0vJtqeZ3iyqrG1ebjGPabkQ5Oj+Wfqc/xr3dOEKneL79xHktOb8410NiAxINx4be74BjM2a2fCLczkSH2NGyZD8vgmmWV7PiRG7I48QgPSjnmbek/q/rX3rrpuq529+41dW5efek9wTJmOLe4+23hvLrC8NGLty19sJRu1efX+dGK22/5kFDJJ9/QC5mWKNRWb3n3ShO9zJ3+e7+46Ps+gYbcnqxpbm4dGPFft1c49r/ln6nP983IUUeVu8n3RSfM83Xsy1IDMRoXgTcVYzB3aYMnhHn1h7Xxzybk1YX7VKctCFPU3ZXZsFMtnQrfFQ9gVNlDWsWySPF+LuXZtvj5kS0Lb2AxLnz7Wjlkfdf50/9p7V1+30U41Zv4e9A8Im2C/kR9bpmdL/FnfZx33Zo6xu9dqfVasW3EhG95enicZegwW28U1NWa+LZEYg+69Ic+QaW+8TU0Ixae1J/qp4znLKM6Qtu+t88XkFOfENe6xjj2frwt7bX2+f1FHI5bGWbfad8rftC+1p4jXYuBDqDHokfiJ7jg3BXIeSzTHSG49Pgco3zRpPul3g1cg5M760sFRXfehxM1rEjLJ+pgy3qMzH+DEtBmeRaz1A6K2o9a3whZCPVg8fS1b6vF2bhWZlf26f/be9detszNhHsb2Hlx3OEZKHxc5vkzLlui3WYha96bagLTyZ8e6HZfkR0NegM2xYtbOu6bPQTYgef0cH3tP2DTiaZ4hcVz3PcrctwHx8tDKUSsPFnY8V99j5p73ffD1+f7Z+1NZO/u4xfe41p+zL0UDAhSqwyNfO+ZDOgAAAMD1oQbk2LqGBqSF0tXHzlR7dQsAAADcH/SEhD8xOQI0IB2ExPDHWmg+AAAAvAPm+nbgZz8yaEAAAAAAcDhoQAAAAABwOGhAAAAAAHA4aEAAAAAAcDhDDcjvn75e/vs18eXj5YsyR+PvvGbi7w/6nLNBvv7n40/qmEbwcSAm750/v9i5/vLxy7KPPn1Q5/QwmiMAAADnYbgB2XLge0XpbNxrA3KWotyT69CIoAEBAICHBA2Iwb0WNzQgAAAA7oFzNyAfPi2P6iey7mwHf5TP5fK3fPhTiT+/fLn8+dMHNv7p8nsai+Ns3USPr623E0qZpT6Llp2af4UdnM4CX9jJ1gzFrIg15cReR1gNiGVLNTaBBgQAAO6T8zYgofmg4lePkR28OIVCloof6eA2hoKV5sXitcjkc4NMVuxGfdWKqVVgW3h28p/nuRvsJqTvUp9ly5ePn4r8eOukDkKLj2eLHFvjKwAAgDPwz8v/B3EhbV5G1EboAAAAAElFTkSuQmCC;" vertex="1" parent="1">
          <mxGeometry x="620" y="330" width="544" height="554" as="geometry" />
        </mxCell>
      </root>
    </mxGraphModel>
  </diagram>
</mxfile>
